<svg xmlns="http://www.w3.org/2000/svg" xmlns:xlink="http://www.w3.org/1999/xlink" width="500" zoomAndPan="magnify" viewBox="0 0 375 374.999991" height="500" preserveAspectRatio="xMidYMid meet" version="1.0"><path fill="#333333" d="M 335.398438 249.683594 L 359.023438 263.320312 C 369.289062 240.132812 375 214.480469 375 187.5 C 375 160.507812 369.289062 134.867188 359.023438 111.679688 L 335.398438 125.316406 C 330.144531 112.835938 323.355469 101.164062 315.261719 90.523438 L 338.886719 76.878906 C 308.5 35.359375 261.457031 6.808594 207.589844 1.070312 L 207.589844 28.347656 C 201.003906 27.519531 194.296875 27.09375 187.492188 27.09375 C 180.683594 27.09375 173.976562 27.519531 167.390625 28.347656 L 167.390625 1.070312 C 113.523438 6.808594 66.480469 35.359375 36.09375 76.878906 L 59.71875 90.523438 C 51.636719 101.164062 44.839844 112.835938 39.582031 125.316406 L 15.960938 111.679688 C 5.710938 134.867188 0 160.507812 0 187.5 C 0 214.492188 5.710938 240.132812 15.976562 263.320312 L 39.601562 249.683594 C 44.855469 262.164062 51.644531 273.835938 59.738281 284.476562 L 36.113281 298.121094 C 66.5 339.640625 113.542969 368.191406 167.410156 373.929688 L 167.410156 346.652344 C 173.996094 347.480469 180.703125 347.90625 187.507812 347.90625 C 194.316406 347.90625 201.023438 347.480469 207.609375 346.652344 L 207.609375 373.929688 C 261.476562 368.191406 308.519531 339.640625 338.90625 298.121094 L 315.28125 284.476562 C 323.355469 273.835938 330.144531 262.164062 335.398438 249.683594 Z M 335.398438 249.683594 " fill-opacity="1" fill-rule="nonzero"/><path fill="#ffffff" d="M 187.5 27.101562 C 194.308594 27.101562 201.015625 27.53125 207.597656 28.359375 L 207.597656 1.070312 C 200.996094 0.363281 194.289062 0 187.5 0 C 180.710938 0 174.003906 0.371094 167.402344 1.070312 L 167.402344 28.347656 C 173.984375 27.53125 180.691406 27.101562 187.5 27.101562 Z M 187.5 27.101562 " fill-opacity="1" fill-rule="nonzero"/><path fill="#ffffff" d="M 187.5 347.898438 C 180.691406 347.898438 173.984375 347.46875 167.402344 346.640625 L 167.402344 373.921875 C 174.003906 374.628906 180.710938 374.992188 187.5 374.992188 C 194.289062 374.992188 200.996094 374.617188 207.597656 373.921875 L 207.597656 346.640625 C 201.015625 347.46875 194.308594 347.898438 187.5 347.898438 Z M 187.5 347.898438 " fill-opacity="1" fill-rule="nonzero"/><path fill="#ffffff" d="M 335.398438 125.316406 L 359.023438 111.679688 C 353.554688 99.320312 346.78125 87.667969 338.894531 76.886719 L 315.273438 90.53125 C 323.355469 101.164062 330.144531 112.835938 335.398438 125.316406 Z M 335.398438 125.316406 " fill-opacity="1" fill-rule="nonzero"/><path fill="#ffffff" d="M 39.601562 249.683594 L 15.976562 263.320312 C 21.445312 275.679688 28.21875 287.332031 36.105469 298.113281 L 59.726562 284.46875 C 51.644531 273.835938 44.855469 262.164062 39.601562 249.683594 Z M 39.601562 249.683594 " fill-opacity="1" fill-rule="nonzero"/><path fill="#ffffff" d="M 335.398438 249.683594 C 330.144531 262.164062 323.355469 273.835938 315.261719 284.476562 L 338.886719 298.121094 C 346.773438 287.34375 353.542969 275.6875 359.011719 263.328125 Z M 335.398438 249.683594 " fill-opacity="1" fill-rule="nonzero"/><path fill="#ffffff" d="M 59.738281 90.523438 L 36.113281 76.878906 C 28.226562 87.65625 21.457031 99.3125 15.988281 111.671875 L 39.609375 125.308594 C 44.855469 112.835938 51.644531 101.164062 59.738281 90.523438 Z M 59.738281 90.523438 " fill-opacity="1" fill-rule="nonzero"/><path fill="#2e2e2e" d="M 187.5 59.050781 C 116.675781 59.050781 59.050781 116.667969 59.050781 187.5 C 59.050781 258.324219 116.667969 315.949219 187.5 315.949219 C 258.332031 315.949219 315.949219 258.324219 315.949219 187.5 C 315.949219 116.675781 258.324219 59.050781 187.5 59.050781 Z M 307.179688 231.054688 C 304.621094 238.105469 301.46875 244.820312 297.796875 251.171875 L 297.542969 251.023438 L 297.769531 251.152344 C 294.039062 257.578125 289.769531 263.652344 285.015625 269.308594 L 285.042969 269.328125 C 280.253906 275.007812 274.992188 280.246094 269.328125 285 L 269.160156 284.804688 L 269.328125 285 C 263.671875 289.75 257.597656 294.027344 251.171875 297.75 L 251.152344 297.722656 C 244.753906 301.421875 238.039062 304.574219 231.0625 307.125 L 230.988281 306.910156 C 230.988281 306.910156 230.988281 306.910156 230.980469 306.910156 L 231.074219 307.152344 C 224.179688 309.664062 217.011719 311.597656 209.636719 312.898438 C 202.417969 314.183594 195.023438 314.84375 187.527344 314.835938 L 187.527344 314.566406 C 187.527344 314.566406 187.527344 314.566406 187.519531 314.566406 L 187.519531 314.824219 C 179.976562 314.824219 172.589844 314.164062 165.402344 312.898438 L 165.402344 312.890625 C 157.980469 311.578125 150.820312 309.644531 143.964844 307.152344 L 144.058594 306.902344 C 144.058594 306.902344 144.058594 306.902344 144.046875 306.902344 L 143.953125 307.144531 C 136.953125 304.585938 130.226562 301.421875 123.855469 297.730469 L 123.835938 297.757812 C 117.382812 294.019531 111.308594 289.742188 105.671875 284.996094 L 105.859375 284.773438 L 105.691406 284.96875 C 100.019531 280.207031 94.773438 274.953125 90.011719 269.289062 C 85.25 263.605469 80.988281 257.523438 77.289062 251.117188 L 77.484375 251.003906 L 77.261719 251.132812 C 73.566406 244.765625 70.40625 238.039062 67.847656 231.035156 L 67.875 231.027344 C 65.347656 224.105469 63.402344 216.945312 62.101562 209.597656 L 62.351562 209.550781 C 62.351562 209.550781 62.351562 209.550781 62.351562 209.542969 L 62.089844 209.589844 C 60.824219 202.410156 60.164062 195.015625 60.164062 187.480469 L 60.15625 187.480469 C 60.15625 180.191406 60.789062 172.796875 62.101562 165.363281 L 62.351562 165.410156 C 62.351562 165.410156 62.351562 165.410156 62.351562 165.402344 L 62.089844 165.355469 C 63.394531 157.96875 65.328125 150.808594 67.839844 143.917969 C 70.394531 136.867188 73.550781 130.152344 77.222656 123.800781 L 77.472656 123.949219 L 77.25 123.820312 C 80.980469 117.390625 85.25 111.320312 90 105.664062 L 89.972656 105.644531 C 94.765625 99.960938 100.027344 94.726562 105.691406 89.972656 L 105.859375 90.167969 L 105.691406 89.972656 C 111.347656 85.222656 117.421875 80.941406 123.847656 77.222656 L 123.867188 77.25 C 130.265625 73.550781 136.980469 70.394531 143.953125 67.847656 L 144.027344 68.0625 C 144.027344 68.0625 144.027344 68.0625 144.039062 68.0625 L 143.945312 67.820312 C 150.835938 65.308594 158.007812 63.375 165.382812 62.070312 C 172.601562 60.789062 179.996094 60.128906 187.492188 60.136719 L 187.492188 60.40625 C 187.492188 60.40625 187.492188 60.40625 187.5 60.40625 L 187.5 60.148438 C 195.042969 60.148438 202.425781 60.808594 209.617188 62.070312 L 209.617188 62.082031 C 217.039062 63.394531 224.199219 65.328125 231.054688 67.820312 L 230.960938 68.070312 C 230.960938 68.070312 230.960938 68.070312 230.972656 68.070312 L 231.0625 67.828125 C 238.066406 70.386719 244.792969 73.550781 251.164062 77.242188 L 251.179688 77.214844 C 257.636719 80.953125 263.710938 85.230469 269.34375 89.972656 L 269.160156 90.195312 L 269.328125 90 C 275 94.761719 280.246094 100.019531 285.007812 105.683594 C 289.761719 111.355469 294.019531 117.4375 297.730469 123.855469 L 297.535156 123.96875 L 297.757812 123.835938 C 301.449219 130.207031 304.613281 136.933594 307.171875 143.9375 L 307.144531 143.945312 C 309.671875 150.863281 311.617188 158.027344 312.917969 165.375 L 312.667969 165.421875 C 312.667969 165.421875 312.667969 165.421875 312.667969 165.429688 L 312.929688 165.382812 C 314.191406 172.5625 314.851562 179.957031 314.851562 187.492188 L 314.863281 187.492188 C 314.863281 194.78125 314.230469 202.175781 312.917969 209.605469 L 312.667969 209.5625 C 312.667969 209.5625 312.667969 209.5625 312.667969 209.570312 L 312.929688 209.617188 C 311.625 217 309.691406 224.164062 307.179688 231.054688 Z M 307.179688 231.054688 " fill-opacity="1" fill-rule="nonzero"/><path fill="#2e2e2e" d="M 304.0625 208.046875 C 305.28125 201.144531 305.867188 194.269531 305.867188 187.5 L 305.859375 187.5 C 305.859375 180.488281 305.246094 173.625 304.0625 166.945312 L 308.707031 166.128906 C 308.707031 166.128906 308.707031 166.128906 308.707031 166.117188 L 304.0625 166.9375 C 302.855469 160.109375 301.050781 153.449219 298.699219 147.015625 L 298.726562 147.003906 C 296.34375 140.496094 293.414062 134.246094 289.984375 128.328125 L 294.066406 125.976562 L 289.957031 128.347656 C 286.503906 122.386719 282.550781 116.730469 278.125 111.457031 C 273.699219 106.183594 268.816406 101.3125 263.542969 96.875 L 266.5625 93.265625 L 263.558594 96.847656 C 258.324219 92.4375 252.679688 88.46875 246.679688 84.988281 L 246.660156 85.015625 C 240.738281 81.585938 234.488281 78.644531 227.976562 76.265625 L 229.585938 71.835938 L 227.976562 76.265625 C 221.605469 73.949219 214.945312 72.152344 208.046875 70.9375 L 208.046875 70.925781 C 201.367188 69.753906 194.503906 69.140625 187.492188 69.140625 L 187.492188 64.425781 C 187.492188 64.425781 187.492188 64.425781 187.480469 64.425781 L 187.480469 69.132812 C 180.515625 69.132812 173.640625 69.746094 166.925781 70.9375 C 160.0625 72.144531 153.402344 73.941406 147.003906 76.273438 L 145.394531 71.847656 L 147.015625 76.300781 C 140.53125 78.671875 134.28125 81.613281 128.339844 85.042969 L 128.320312 85.015625 C 122.347656 88.476562 116.703125 92.449219 111.449219 96.867188 L 108.425781 93.257812 L 111.449219 96.867188 C 106.183594 101.273438 101.292969 106.136719 96.847656 111.421875 L 96.875 111.441406 C 92.457031 116.695312 88.484375 122.339844 85.015625 128.3125 L 80.933594 125.957031 L 84.988281 128.292969 C 81.574219 134.1875 78.644531 140.4375 76.265625 146.988281 C 73.929688 153.394531 72.125 160.054688 70.925781 166.917969 L 66.285156 166.097656 C 66.285156 166.097656 66.285156 166.097656 66.285156 166.109375 L 70.9375 166.925781 C 69.71875 173.828125 69.132812 180.703125 69.132812 187.472656 L 69.140625 187.472656 C 69.140625 194.484375 69.753906 201.347656 70.9375 208.027344 L 66.292969 208.84375 C 66.292969 208.84375 66.292969 208.84375 66.292969 208.855469 L 70.9375 208.035156 C 72.144531 214.863281 73.949219 221.523438 76.300781 227.957031 L 76.273438 227.96875 C 78.65625 234.476562 81.585938 240.726562 85.015625 246.640625 L 80.933594 248.996094 L 85.042969 246.625 C 88.496094 252.585938 92.449219 258.230469 96.875 263.515625 C 101.300781 268.789062 106.183594 273.660156 111.457031 278.097656 L 108.4375 281.707031 L 111.441406 278.125 C 116.675781 282.535156 122.3125 286.503906 128.320312 289.984375 L 128.339844 289.957031 C 134.261719 293.386719 140.511719 296.328125 147.023438 298.707031 L 145.414062 303.132812 L 147.023438 298.707031 C 153.394531 301.023438 160.054688 302.816406 166.953125 304.035156 L 166.953125 304.046875 C 173.632812 305.21875 180.496094 305.832031 187.507812 305.832031 L 187.507812 310.546875 C 187.507812 310.546875 187.507812 310.546875 187.519531 310.546875 L 187.519531 305.839844 C 194.484375 305.839844 201.359375 305.226562 208.074219 304.035156 C 214.9375 302.828125 221.597656 301.03125 227.996094 298.699219 L 229.605469 303.125 L 227.984375 298.671875 C 234.46875 296.296875 240.71875 293.359375 246.660156 289.925781 L 246.679688 289.957031 C 252.652344 286.496094 258.296875 282.523438 263.550781 278.105469 L 266.574219 281.714844 L 263.550781 278.105469 C 268.816406 273.699219 273.707031 268.832031 278.152344 263.550781 L 278.125 263.53125 C 282.542969 258.277344 286.515625 252.632812 289.984375 246.660156 L 294.066406 249.015625 L 290.011719 246.679688 C 293.425781 240.78125 296.355469 234.53125 298.734375 227.984375 C 301.058594 221.578125 302.863281 214.917969 304.0625 208.046875 L 308.714844 208.871094 C 308.714844 208.871094 308.714844 208.871094 308.714844 208.863281 Z M 187.5 301.042969 C 124.898438 301.042969 73.957031 250.113281 73.957031 187.5 C 73.957031 124.886719 124.886719 73.957031 187.5 73.957031 C 250.113281 73.957031 301.042969 124.898438 301.042969 187.5 C 301.042969 250.101562 250.101562 301.042969 187.5 301.042969 Z M 187.5 301.042969 " fill-opacity="1" fill-rule="nonzero"/><path fill="#ffffff" d="M 209.5625 62.332031 L 209.609375 62.082031 C 209.609375 62.082031 209.609375 62.082031 209.617188 62.082031 L 209.617188 62.070312 C 202.425781 60.808594 195.042969 60.148438 187.5 60.148438 L 187.5 69.140625 C 194.503906 69.140625 201.375 69.753906 208.054688 70.925781 L 208.871094 66.285156 Z M 209.5625 62.332031 " fill-opacity="1" fill-rule="nonzero"/><path fill="#ffffff" d="M 246.679688 84.988281 L 249.015625 80.933594 L 251.023438 77.457031 L 251.152344 77.230469 C 244.78125 73.539062 238.058594 70.378906 231.054688 67.820312 L 230.960938 68.0625 L 229.585938 71.835938 L 227.976562 76.265625 C 234.488281 78.644531 240.738281 81.574219 246.660156 85.015625 Z M 246.679688 84.988281 " fill-opacity="1" fill-rule="nonzero"/><path fill="#ffffff" d="M 281.722656 108.425781 L 284.804688 105.851562 L 285 105.683594 C 280.234375 100.007812 274.980469 94.765625 269.316406 90 L 269.148438 90.195312 L 266.574219 93.277344 L 263.550781 96.882812 C 268.824219 101.3125 273.699219 106.195312 278.132812 111.46875 Z M 281.722656 108.425781 " fill-opacity="1" fill-rule="nonzero"/><path fill="#ffffff" d="M 306.929688 144.027344 L 307.144531 143.953125 C 307.144531 143.953125 307.144531 143.953125 307.144531 143.964844 L 307.171875 143.953125 C 304.613281 136.953125 301.449219 130.226562 297.757812 123.855469 L 297.535156 123.984375 L 294.058594 125.996094 L 289.972656 128.347656 C 293.40625 134.273438 296.34375 140.511719 298.714844 147.023438 L 303.144531 145.414062 Z M 306.929688 144.027344 " fill-opacity="1" fill-rule="nonzero"/><path fill="#ffffff" d="M 312.917969 165.382812 L 312.65625 165.429688 L 308.707031 166.128906 L 304.0625 166.945312 C 305.234375 173.625 305.859375 180.488281 305.859375 187.5 L 314.851562 187.5 C 314.84375 179.957031 314.183594 172.574219 312.917969 165.382812 Z M 312.917969 165.382812 " fill-opacity="1" fill-rule="nonzero"/><path fill="#ffffff" d="M 308.707031 208.871094 L 304.0625 208.054688 C 302.855469 214.917969 301.058594 221.578125 298.726562 227.984375 L 303.152344 229.59375 L 306.929688 230.972656 L 307.171875 231.0625 C 309.683594 224.171875 311.617188 217.011719 312.917969 209.625 L 312.65625 209.578125 Z M 308.707031 208.871094 " fill-opacity="1" fill-rule="nonzero"/><path fill="#ffffff" d="M 294.058594 249.023438 L 289.972656 246.671875 C 286.515625 252.640625 282.535156 258.285156 278.117188 263.542969 L 278.144531 263.558594 L 281.722656 266.5625 L 284.804688 269.140625 L 285 269.308594 C 289.75 263.652344 294.027344 257.578125 297.75 251.152344 L 297.527344 251.023438 Z M 294.058594 249.023438 " fill-opacity="1" fill-rule="nonzero"/><path fill="#ffffff" d="M 266.574219 281.734375 L 263.550781 278.125 C 258.296875 282.542969 252.652344 286.515625 246.679688 289.972656 L 249.03125 294.058594 L 251.042969 297.535156 L 251.152344 297.730469 L 251.171875 297.757812 C 257.597656 294.027344 263.671875 289.761719 269.328125 285.007812 L 269.160156 284.8125 Z M 266.574219 281.734375 " fill-opacity="1" fill-rule="nonzero"/><path fill="#ffffff" d="M 229.59375 303.152344 L 227.984375 298.726562 C 221.585938 301.058594 214.917969 302.863281 208.0625 304.0625 L 208.882812 308.707031 L 209.578125 312.65625 L 209.625 312.910156 C 209.625 312.910156 209.625 312.910156 209.617188 312.910156 C 217 311.605469 224.171875 309.671875 231.054688 307.160156 L 230.960938 306.917969 Z M 229.59375 303.152344 " fill-opacity="1" fill-rule="nonzero"/><path fill="#ffffff" d="M 166.136719 308.714844 L 165.4375 312.667969 L 165.390625 312.917969 C 165.390625 312.917969 165.390625 312.917969 165.382812 312.917969 L 165.382812 312.929688 C 172.574219 314.191406 179.957031 314.851562 187.5 314.851562 L 187.5 305.859375 C 180.496094 305.859375 173.625 305.246094 166.945312 304.074219 Z M 166.136719 308.714844 " fill-opacity="1" fill-rule="nonzero"/><path fill="#ffffff" d="M 128.320312 290.011719 L 125.984375 294.066406 L 123.976562 297.542969 L 123.847656 297.769531 C 130.21875 301.460938 136.941406 304.621094 143.945312 307.179688 L 144.039062 306.9375 L 145.414062 303.160156 L 147.023438 298.734375 C 140.511719 296.355469 134.261719 293.425781 128.339844 289.984375 Z M 128.320312 290.011719 " fill-opacity="1" fill-rule="nonzero"/><path fill="#ffffff" d="M 96.875 263.542969 L 93.265625 266.574219 L 90.195312 269.148438 L 90 269.316406 C 94.765625 274.992188 100.019531 280.234375 105.683594 285 L 105.851562 284.804688 L 108.425781 281.734375 L 111.449219 278.125 C 106.183594 273.699219 101.3125 268.816406 96.875 263.542969 Z M 96.875 263.542969 " fill-opacity="1" fill-rule="nonzero"/><path fill="#ffffff" d="M 71.847656 229.605469 L 68.070312 230.980469 L 67.855469 231.054688 C 67.855469 231.054688 67.855469 231.054688 67.855469 231.046875 L 67.828125 231.054688 C 70.386719 238.058594 73.550781 244.78125 77.242188 251.152344 L 77.464844 251.023438 L 80.941406 249.015625 L 85.027344 246.660156 C 81.59375 240.738281 78.65625 234.496094 76.285156 227.984375 Z M 71.847656 229.605469 " fill-opacity="1" fill-rule="nonzero"/><path fill="#ffffff" d="M 69.140625 187.5 C 69.132812 187.5 69.132812 187.5 69.140625 187.5 L 64.425781 187.507812 L 60.148438 187.507812 C 60.148438 195.050781 60.808594 202.4375 62.070312 209.617188 L 62.332031 209.570312 L 66.285156 208.871094 L 70.925781 208.054688 C 69.753906 201.375 69.140625 194.511719 69.140625 187.5 Z M 69.140625 187.5 " fill-opacity="1" fill-rule="nonzero"/><path fill="#ffffff" d="M 66.292969 166.128906 L 70.9375 166.945312 C 72.144531 160.082031 73.941406 153.421875 76.273438 147.015625 L 71.847656 145.40625 L 68.070312 144.027344 L 67.828125 143.9375 C 65.316406 150.828125 63.382812 157.988281 62.082031 165.375 L 62.34375 165.421875 Z M 66.292969 166.128906 " fill-opacity="1" fill-rule="nonzero"/><path fill="#ffffff" d="M 80.941406 125.976562 L 85.027344 128.328125 C 88.484375 122.359375 92.464844 116.714844 96.882812 111.457031 L 96.855469 111.441406 L 93.277344 108.4375 L 90.195312 105.859375 L 90 105.691406 C 85.25 111.347656 80.972656 117.421875 77.25 123.847656 L 77.472656 123.976562 Z M 80.941406 125.976562 " fill-opacity="1" fill-rule="nonzero"/><path fill="#ffffff" d="M 166.128906 66.292969 L 165.429688 62.34375 L 165.382812 62.089844 C 165.382812 62.089844 165.382812 62.089844 165.390625 62.089844 C 158.007812 63.394531 150.835938 65.328125 143.953125 67.839844 L 144.046875 68.082031 L 145.425781 71.855469 L 147.03125 76.285156 C 153.433594 73.949219 160.101562 72.144531 166.953125 70.945312 Z M 166.128906 66.292969 " fill-opacity="1" fill-rule="nonzero"/><path fill="#ffffff" d="M 123.96875 77.464844 L 123.855469 77.269531 L 123.835938 77.242188 C 117.410156 80.972656 111.335938 85.238281 105.683594 89.992188 L 105.851562 90.1875 L 108.425781 93.257812 L 111.449219 96.867188 C 116.703125 92.449219 122.347656 88.476562 128.320312 85.015625 L 125.96875 80.933594 Z M 123.96875 77.464844 " fill-opacity="1" fill-rule="nonzero"/><path fill="#333333" d="M 123.96875 297.535156 L 123.976562 297.535156 L 125.984375 294.058594 L 125.976562 294.058594 Z M 123.96875 297.535156 " fill-opacity="1" fill-rule="nonzero"/><path fill="#333333" d="M 123.96875 297.535156 L 123.835938 297.757812 L 123.847656 297.757812 L 123.976562 297.535156 Z M 123.96875 297.535156 " fill-opacity="1" fill-rule="nonzero"/><path fill="#333333" d="M 128.320312 290.011719 L 125.976562 294.058594 L 125.984375 294.058594 Z M 128.320312 290.011719 " fill-opacity="1" fill-rule="nonzero"/><path fill="#333333" d="M 165.429688 312.667969 L 165.4375 312.667969 L 166.136719 308.714844 L 166.128906 308.707031 Z M 165.429688 312.667969 " fill-opacity="1" fill-rule="nonzero"/><path fill="#333333" d="M 165.4375 312.667969 L 165.429688 312.667969 L 165.382812 312.910156 L 165.390625 312.910156 Z M 165.4375 312.667969 " fill-opacity="1" fill-rule="nonzero"/><path fill="#333333" d="M 166.945312 304.074219 L 166.128906 308.707031 L 166.136719 308.714844 Z M 166.945312 304.074219 " fill-opacity="1" fill-rule="nonzero"/><path fill="#333333" d="M 90.195312 269.148438 L 93.277344 266.574219 L 93.265625 266.574219 Z M 90.195312 269.148438 " fill-opacity="1" fill-rule="nonzero"/><path fill="#333333" d="M 90.195312 269.148438 L 89.992188 269.316406 L 90 269.316406 Z M 90.195312 269.148438 " fill-opacity="1" fill-rule="nonzero"/><path fill="#333333" d="M 96.875 263.542969 L 93.265625 266.574219 L 93.277344 266.574219 Z M 96.875 263.542969 " fill-opacity="1" fill-rule="nonzero"/><path fill="#333333" d="M 68.070312 230.972656 L 71.847656 229.605469 L 71.847656 229.59375 Z M 68.070312 230.972656 " fill-opacity="1" fill-rule="nonzero"/><path fill="#333333" d="M 68.070312 230.972656 L 67.855469 231.046875 L 67.867188 231.046875 Z M 68.070312 230.972656 " fill-opacity="1" fill-rule="nonzero"/><path fill="#333333" d="M 76.273438 227.984375 L 71.847656 229.59375 L 71.847656 229.605469 Z M 76.273438 227.984375 " fill-opacity="1" fill-rule="nonzero"/><path fill="#333333" d="M 60.417969 187.5 L 60.417969 187.507812 L 64.425781 187.507812 L 64.425781 187.5 Z M 60.417969 187.5 " fill-opacity="1" fill-rule="nonzero"/><path fill="#333333" d="M 60.417969 187.5 L 60.15625 187.5 L 60.15625 187.507812 L 60.417969 187.507812 Z M 60.417969 187.5 " fill-opacity="1" fill-rule="nonzero"/><path fill="#333333" d="M 69.132812 187.5 L 64.425781 187.5 L 64.425781 187.507812 Z M 69.132812 187.5 " fill-opacity="1" fill-rule="nonzero"/><path fill="#333333" d="M 284.804688 269.148438 L 284.8125 269.140625 L 281.734375 266.5625 L 281.734375 266.574219 Z M 284.804688 269.148438 " fill-opacity="1" fill-rule="nonzero"/><path fill="#333333" d="M 284.804688 269.148438 L 285.007812 269.316406 L 285.007812 269.308594 L 284.8125 269.140625 Z M 284.804688 269.148438 " fill-opacity="1" fill-rule="nonzero"/><path fill="#333333" d="M 278.144531 263.558594 L 281.734375 266.574219 L 281.734375 266.5625 L 278.152344 263.558594 Z M 278.144531 263.558594 " fill-opacity="1" fill-rule="nonzero"/><path fill="#333333" d="M 303.152344 229.59375 L 306.929688 230.972656 L 306.929688 230.960938 Z M 303.152344 229.59375 " fill-opacity="1" fill-rule="nonzero"/><path fill="#333333" d="M 306.929688 230.972656 L 307.171875 231.054688 L 306.929688 230.960938 Z M 306.929688 230.972656 " fill-opacity="1" fill-rule="nonzero"/><path fill="#333333" d="M 298.734375 227.976562 L 298.726562 227.984375 L 303.152344 229.59375 Z M 298.734375 227.976562 " fill-opacity="1" fill-rule="nonzero"/><path fill="#333333" d="M 209.570312 312.667969 L 209.570312 312.65625 L 208.871094 308.707031 Z M 209.570312 312.667969 " fill-opacity="1" fill-rule="nonzero"/><path fill="#333333" d="M 209.570312 312.65625 L 209.570312 312.667969 L 209.617188 312.917969 Z M 209.570312 312.65625 " fill-opacity="1" fill-rule="nonzero"/><path fill="#333333" d="M 208.054688 304.074219 L 208.871094 308.707031 L 208.054688 304.0625 Z M 208.054688 304.074219 " fill-opacity="1" fill-rule="nonzero"/><path fill="#333333" d="M 251.03125 297.535156 L 249.023438 294.058594 Z M 251.03125 297.535156 " fill-opacity="1" fill-rule="nonzero"/><path fill="#333333" d="M 251.03125 297.535156 L 251.144531 297.730469 Z M 251.03125 297.535156 " fill-opacity="1" fill-rule="nonzero"/><path fill="#333333" d="M 246.671875 289.984375 L 249.023438 294.058594 L 246.671875 289.972656 Z M 246.671875 289.984375 " fill-opacity="1" fill-rule="nonzero"/><path fill="#333333" d="M 284.804688 105.851562 L 281.722656 108.425781 L 281.734375 108.4375 Z M 284.804688 105.851562 " fill-opacity="1" fill-rule="nonzero"/><path fill="#333333" d="M 284.804688 105.851562 L 285.007812 105.683594 L 285 105.683594 Z M 284.804688 105.851562 " fill-opacity="1" fill-rule="nonzero"/><path fill="#333333" d="M 278.125 111.457031 L 281.734375 108.4375 L 281.722656 108.425781 Z M 278.125 111.457031 " fill-opacity="1" fill-rule="nonzero"/><path fill="#333333" d="M 209.570312 62.332031 L 209.5625 62.332031 L 208.863281 66.292969 L 208.871094 66.292969 Z M 209.570312 62.332031 " fill-opacity="1" fill-rule="nonzero"/><path fill="#333333" d="M 209.5625 62.332031 L 209.570312 62.332031 L 209.617188 62.089844 L 209.609375 62.089844 Z M 209.5625 62.332031 " fill-opacity="1" fill-rule="nonzero"/><path fill="#333333" d="M 208.054688 70.925781 L 208.871094 66.292969 L 208.863281 66.292969 Z M 208.054688 70.925781 " fill-opacity="1" fill-rule="nonzero"/><path fill="#333333" d="M 251.03125 77.464844 L 251.023438 77.464844 L 249.015625 80.941406 L 249.023438 80.941406 Z M 251.03125 77.464844 " fill-opacity="1" fill-rule="nonzero"/><path fill="#333333" d="M 251.03125 77.464844 L 251.164062 77.242188 L 251.152344 77.242188 L 251.023438 77.464844 Z M 251.03125 77.464844 " fill-opacity="1" fill-rule="nonzero"/><path fill="#333333" d="M 246.679688 84.988281 L 249.023438 80.941406 L 249.015625 80.941406 Z M 246.679688 84.988281 " fill-opacity="1" fill-rule="nonzero"/><path fill="#333333" d="M 314.582031 187.5 L 314.582031 187.492188 L 310.574219 187.492188 L 310.574219 187.5 Z M 314.582031 187.5 " fill-opacity="1" fill-rule="nonzero"/><path fill="#333333" d="M 314.582031 187.5 L 314.84375 187.5 L 314.84375 187.492188 L 314.582031 187.492188 Z M 314.582031 187.5 " fill-opacity="1" fill-rule="nonzero"/><path fill="#333333" d="M 305.867188 187.5 L 310.574219 187.5 L 310.574219 187.492188 Z M 305.867188 187.5 " fill-opacity="1" fill-rule="nonzero"/><path fill="#333333" d="M 306.929688 144.027344 L 303.152344 145.40625 Z M 306.929688 144.027344 " fill-opacity="1" fill-rule="nonzero"/><path fill="#333333" d="M 306.929688 144.027344 L 307.144531 143.953125 L 307.132812 143.953125 Z M 306.929688 144.027344 " fill-opacity="1" fill-rule="nonzero"/><path fill="#333333" d="M 298.726562 147.015625 L 303.152344 145.40625 Z M 298.726562 147.015625 " fill-opacity="1" fill-rule="nonzero"/><path fill="#333333" d="M 68.070312 144.027344 L 68.070312 144.039062 L 71.847656 145.40625 Z M 68.070312 144.027344 " fill-opacity="1" fill-rule="nonzero"/><path fill="#333333" d="M 68.070312 144.027344 L 67.828125 143.945312 L 68.070312 144.039062 Z M 68.070312 144.027344 " fill-opacity="1" fill-rule="nonzero"/><path fill="#333333" d="M 76.273438 147.015625 L 71.847656 145.40625 L 76.265625 147.023438 Z M 76.273438 147.015625 " fill-opacity="1" fill-rule="nonzero"/><path fill="#333333" d="M 90.195312 105.851562 L 90.1875 105.859375 L 93.265625 108.4375 L 93.265625 108.425781 Z M 90.195312 105.851562 " fill-opacity="1" fill-rule="nonzero"/><path fill="#333333" d="M 90.195312 105.851562 L 89.992188 105.683594 L 89.992188 105.691406 L 90.1875 105.859375 Z M 90.195312 105.851562 " fill-opacity="1" fill-rule="nonzero"/><path fill="#333333" d="M 96.847656 111.441406 L 93.265625 108.425781 L 93.265625 108.4375 Z M 96.847656 111.441406 " fill-opacity="1" fill-rule="nonzero"/><path fill="#333333" d="M 165.429688 62.332031 L 165.429688 62.34375 L 166.128906 66.292969 Z M 165.429688 62.332031 " fill-opacity="1" fill-rule="nonzero"/><path fill="#333333" d="M 165.429688 62.34375 L 165.429688 62.332031 L 165.382812 62.082031 Z M 165.429688 62.34375 " fill-opacity="1" fill-rule="nonzero"/><path fill="#333333" d="M 166.945312 70.925781 L 166.128906 66.292969 L 166.945312 70.9375 Z M 166.945312 70.925781 " fill-opacity="1" fill-rule="nonzero"/><path fill="#333333" d="M 123.96875 77.464844 L 125.976562 80.941406 Z M 123.96875 77.464844 " fill-opacity="1" fill-rule="nonzero"/><path fill="#333333" d="M 123.96875 77.464844 L 123.855469 77.269531 Z M 123.96875 77.464844 " fill-opacity="1" fill-rule="nonzero"/><path fill="#333333" d="M 128.328125 85.015625 L 125.976562 80.941406 L 128.328125 85.027344 Z M 128.328125 85.015625 " fill-opacity="1" fill-rule="nonzero"/></svg>