<svg xmlns="http://www.w3.org/2000/svg" xmlns:xlink="http://www.w3.org/1999/xlink" width="500" zoomAndPan="magnify" viewBox="0 0 375 374.999991" height="500" preserveAspectRatio="xMidYMid meet" version="1.0"><path fill="#ea4739" d="M 335.421875 249.6875 L 359.046875 263.324219 C 369.3125 240.140625 375.019531 214.488281 375.019531 187.488281 C 375.019531 160.5 369.3125 134.851562 359.046875 111.652344 L 335.421875 125.292969 C 330.171875 112.8125 323.367188 101.132812 315.289062 90.492188 L 338.925781 76.855469 C 308.539062 35.335938 261.480469 6.769531 207.609375 1.027344 L 207.609375 28.308594 C 201.019531 27.480469 194.3125 27.054688 187.511719 27.054688 C 180.707031 27.054688 173.988281 27.480469 167.410156 28.308594 L 167.410156 1.050781 C 113.539062 6.792969 66.480469 35.347656 36.097656 76.875 L 59.730469 90.515625 C 51.644531 101.152344 44.851562 112.832031 39.601562 125.3125 L 15.976562 111.675781 C 5.710938 134.859375 0 160.511719 0 187.511719 C 0 214.5 5.710938 240.148438 15.976562 263.347656 L 39.601562 249.707031 C 44.851562 262.1875 51.652344 273.867188 59.730469 284.507812 L 36.097656 298.144531 C 66.480469 339.664062 113.539062 368.230469 167.410156 373.972656 L 167.410156 346.691406 C 174 347.519531 180.707031 347.945312 187.511719 347.945312 C 194.3125 347.945312 201.03125 347.519531 207.609375 346.691406 L 207.609375 373.972656 C 261.480469 368.230469 308.539062 339.675781 338.925781 298.144531 L 315.289062 284.507812 C 323.367188 273.847656 330.171875 262.179688 335.421875 249.6875 Z M 335.421875 249.6875 " fill-opacity="1" fill-rule="nonzero"/><path fill="#ffffff" d="M 187.5 27.074219 C 194.304688 27.074219 201.019531 27.503906 207.601562 28.328125 L 207.601562 1.050781 C 201 0.34375 194.292969 -0.0195312 187.5 -0.0195312 C 180.707031 -0.0195312 174 0.355469 167.398438 1.050781 L 167.398438 28.328125 C 173.980469 27.503906 180.695312 27.074219 187.5 27.074219 Z M 187.5 27.074219 " fill-opacity="1" fill-rule="nonzero"/><path fill="#ffffff" d="M 187.5 347.925781 C 180.695312 347.925781 173.980469 347.496094 167.398438 346.671875 L 167.398438 373.949219 C 174 374.65625 180.707031 375.019531 187.5 375.019531 C 194.292969 375.019531 201 374.644531 207.601562 373.949219 L 207.601562 346.671875 C 201.019531 347.496094 194.304688 347.925781 187.5 347.925781 Z M 187.5 347.925781 " fill-opacity="1" fill-rule="nonzero"/><path fill="#ffffff" d="M 335.421875 125.3125 L 359.046875 111.675781 C 353.570312 99.3125 346.8125 87.652344 338.914062 76.875 L 315.277344 90.515625 C 323.367188 101.152344 330.171875 112.820312 335.421875 125.3125 Z M 335.421875 125.3125 " fill-opacity="1" fill-rule="nonzero"/><path fill="#ffffff" d="M 39.578125 249.6875 L 15.953125 263.324219 C 21.429688 275.6875 28.1875 287.347656 36.085938 298.125 L 59.722656 284.484375 C 51.632812 273.847656 44.828125 262.179688 39.578125 249.6875 Z M 39.578125 249.6875 " fill-opacity="1" fill-rule="nonzero"/><path fill="#ffffff" d="M 335.421875 249.6875 C 330.171875 262.167969 323.367188 273.847656 315.289062 284.484375 L 338.925781 298.125 C 346.820312 287.347656 353.582031 275.6875 359.058594 263.324219 Z M 335.421875 249.6875 " fill-opacity="1" fill-rule="nonzero"/><path fill="#ffffff" d="M 59.710938 90.515625 L 36.074219 76.875 C 28.179688 87.652344 21.417969 99.3125 15.941406 111.675781 L 39.566406 125.3125 C 44.828125 112.820312 51.632812 101.152344 59.710938 90.515625 Z M 59.710938 90.515625 " fill-opacity="1" fill-rule="nonzero"/><path fill="#db2c1c" d="M 187.5 59.035156 C 116.667969 59.035156 59.035156 116.667969 59.035156 187.5 C 59.035156 258.332031 116.667969 315.964844 187.5 315.964844 C 258.332031 315.964844 315.964844 258.332031 315.964844 187.5 C 315.964844 116.667969 258.332031 59.035156 187.5 59.035156 Z M 307.1875 231.0625 C 304.628906 238.113281 301.480469 244.832031 297.804688 251.1875 L 297.546875 251.035156 L 297.769531 251.164062 C 294.042969 257.59375 289.769531 263.667969 285.019531 269.324219 L 285.042969 269.347656 C 280.253906 275.035156 274.992188 280.265625 269.324219 285.011719 L 269.152344 284.808594 L 269.324219 285.011719 C 263.667969 289.769531 257.59375 294.042969 251.164062 297.769531 L 251.144531 297.738281 C 244.746094 301.4375 238.027344 304.597656 231.054688 307.144531 L 230.980469 306.933594 L 231.0625 307.179688 C 224.175781 309.695312 217.007812 311.625 209.613281 312.933594 C 202.394531 314.21875 195 314.871094 187.5 314.871094 L 187.5 314.605469 L 187.5 314.859375 C 179.957031 314.859375 172.5625 314.195312 165.386719 312.933594 L 165.386719 312.921875 C 157.960938 311.613281 150.804688 309.675781 143.945312 307.1875 L 144.03125 306.941406 L 143.945312 307.1875 C 136.9375 304.628906 130.222656 301.46875 123.847656 297.78125 L 123.824219 297.8125 C 117.363281 294.074219 111.300781 289.800781 105.664062 285.054688 L 105.855469 284.828125 L 105.6875 285.03125 C 100.019531 280.265625 94.769531 275.015625 90 269.347656 C 85.242188 263.667969 80.980469 257.582031 77.269531 251.175781 L 77.464844 251.058594 L 77.238281 251.1875 C 73.542969 244.8125 70.382812 238.09375 67.820312 231.085938 L 67.855469 231.074219 C 65.324219 224.152344 63.375 216.984375 62.078125 209.644531 L 62.335938 209.601562 L 62.078125 209.644531 C 60.8125 202.457031 60.148438 195.074219 60.148438 187.53125 L 60.140625 187.53125 C 60.140625 180.234375 60.769531 172.84375 62.078125 165.417969 L 62.324219 165.460938 L 62.066406 165.417969 C 63.363281 158.035156 65.304688 150.867188 67.8125 143.980469 C 70.371094 136.929688 73.519531 130.210938 77.195312 123.855469 L 77.453125 124.007812 L 77.230469 123.878906 C 80.957031 117.449219 85.230469 111.375 89.976562 105.71875 L 89.957031 105.695312 C 94.746094 100.007812 100.007812 94.777344 105.675781 90.03125 L 105.847656 90.234375 L 105.675781 90.03125 C 111.332031 85.273438 117.40625 81 123.835938 77.269531 L 123.855469 77.304688 C 130.253906 73.605469 136.972656 70.445312 143.945312 67.894531 L 144.019531 68.109375 L 143.9375 67.863281 C 150.824219 65.347656 157.992188 63.417969 165.386719 62.109375 C 172.605469 60.824219 180 60.171875 187.5 60.171875 L 187.5 60.4375 L 187.5 60.183594 C 195.042969 60.183594 202.4375 60.847656 209.613281 62.109375 L 209.613281 62.121094 C 217.039062 63.429688 224.195312 65.367188 231.054688 67.855469 L 230.96875 68.101562 L 231.054688 67.855469 C 238.0625 70.414062 244.777344 73.574219 251.152344 77.261719 L 251.175781 77.230469 C 257.636719 80.96875 263.699219 85.242188 269.335938 89.988281 L 269.144531 90.214844 L 269.3125 90.011719 C 274.980469 94.777344 280.230469 100.027344 285 105.695312 C 289.757812 111.375 294.011719 117.460938 297.730469 123.867188 L 297.535156 123.984375 L 297.761719 123.855469 C 301.457031 130.230469 304.617188 136.949219 307.179688 143.957031 L 307.144531 143.96875 C 309.675781 150.890625 311.625 158.058594 312.921875 165.394531 L 312.664062 165.4375 L 312.921875 165.394531 C 314.1875 172.585938 314.851562 179.96875 314.851562 187.511719 L 314.859375 187.511719 C 314.859375 194.808594 314.230469 202.199219 312.921875 209.625 L 312.675781 209.582031 L 312.933594 209.625 C 311.636719 216.996094 309.707031 224.164062 307.1875 231.0625 Z M 307.1875 231.0625 " fill-opacity="1" fill-rule="nonzero"/><path fill="#db2c1c" d="M 304.082031 208.050781 C 305.304688 201.148438 305.882812 194.28125 305.894531 187.5 L 305.882812 187.5 C 305.882812 180.492188 305.261719 173.625 304.09375 166.9375 L 308.730469 166.125 L 304.09375 166.9375 C 302.882812 160.113281 301.070312 153.449219 298.726562 147.019531 L 298.757812 147.011719 C 296.378906 140.496094 293.441406 134.25 290.015625 128.324219 L 294.097656 125.96875 L 289.992188 128.335938 C 286.542969 122.378906 282.589844 116.722656 278.164062 111.4375 C 273.730469 106.167969 268.855469 101.292969 263.582031 96.855469 L 266.613281 93.246094 L 263.605469 96.824219 C 258.363281 92.410156 252.730469 88.4375 246.730469 84.964844 L 246.71875 84.996094 C 240.792969 81.558594 234.546875 78.621094 228.03125 76.242188 L 229.640625 71.816406 L 228.03125 76.242188 C 221.65625 73.929688 215.003906 72.128906 208.09375 70.90625 L 208.09375 70.894531 C 201.417969 69.71875 194.550781 69.105469 187.542969 69.105469 L 187.542969 64.394531 L 187.542969 69.097656 C 180.578125 69.097656 173.699219 69.707031 166.980469 70.894531 C 160.125 72.105469 153.460938 73.894531 147.054688 76.242188 L 145.445312 71.816406 L 147.0625 76.273438 C 140.582031 78.652344 134.324219 81.578125 128.378906 85.019531 L 128.367188 84.984375 C 122.390625 88.445312 116.753906 92.421875 111.492188 96.835938 L 108.460938 93.226562 L 111.492188 96.835938 C 106.230469 101.25 101.335938 106.113281 96.890625 111.394531 L 96.910156 111.417969 C 92.496094 116.679688 88.519531 122.324219 85.050781 128.292969 L 80.96875 125.9375 L 85.019531 128.269531 C 81.601562 134.175781 78.675781 140.421875 76.296875 146.96875 C 73.960938 153.375 72.160156 160.039062 70.949219 166.894531 L 66.3125 166.082031 L 70.960938 166.894531 C 69.738281 173.796875 69.160156 180.664062 69.160156 187.445312 L 69.171875 187.445312 C 69.171875 194.453125 69.792969 201.320312 70.960938 208.007812 L 66.320312 208.820312 L 70.960938 208.007812 C 72.171875 214.832031 73.980469 221.496094 76.328125 227.925781 L 76.296875 227.9375 C 78.675781 234.449219 81.609375 240.695312 85.039062 246.621094 L 80.957031 248.980469 L 85.0625 246.609375 C 88.511719 252.566406 92.464844 258.226562 96.890625 263.496094 C 101.324219 268.769531 106.199219 273.652344 111.472656 278.078125 L 108.4375 281.6875 L 111.449219 278.109375 C 116.6875 282.523438 122.324219 286.5 128.324219 289.972656 L 128.335938 289.9375 C 134.261719 293.378906 140.507812 296.3125 147.019531 298.691406 L 145.414062 303.117188 L 147.019531 298.691406 C 153.394531 301.007812 160.050781 302.808594 166.960938 304.027344 L 166.960938 304.039062 C 173.636719 305.21875 180.503906 305.828125 187.511719 305.828125 L 187.511719 310.542969 L 187.511719 305.839844 C 194.476562 305.839844 201.355469 305.230469 208.070312 304.039062 C 214.929688 302.828125 221.59375 301.039062 228 298.691406 L 229.605469 303.117188 L 227.988281 298.660156 C 234.472656 296.28125 240.730469 293.355469 246.675781 289.917969 L 246.6875 289.949219 C 252.664062 286.488281 258.300781 282.515625 263.5625 278.101562 L 266.59375 281.710938 L 263.5625 278.101562 C 268.820312 273.6875 273.71875 268.820312 278.164062 263.539062 L 278.144531 263.519531 C 282.558594 258.257812 286.53125 252.609375 290.003906 246.644531 L 294.085938 249 L 290.035156 246.664062 C 293.453125 240.761719 296.378906 234.515625 298.757812 227.96875 C 301.082031 221.582031 302.882812 214.917969 304.082031 208.050781 L 308.730469 208.875 Z M 187.5 301.0625 C 124.886719 301.0625 73.9375 250.113281 73.9375 187.5 C 73.9375 124.886719 124.886719 73.9375 187.5 73.9375 C 250.113281 73.9375 301.0625 124.875 301.0625 187.5 C 301.0625 250.125 250.113281 301.0625 187.5 301.0625 Z M 187.5 301.0625 " fill-opacity="1" fill-rule="nonzero"/><path fill="#ffffff" d="M 209.570312 62.3125 L 209.613281 62.066406 L 209.613281 62.058594 C 202.425781 60.792969 195.042969 60.128906 187.5 60.128906 L 187.5 69.117188 C 194.507812 69.117188 201.375 69.738281 208.050781 70.90625 L 208.863281 66.269531 Z M 209.570312 62.3125 " fill-opacity="1" fill-rule="nonzero"/><path fill="#ffffff" d="M 246.6875 84.976562 L 249.019531 80.925781 L 251.023438 77.453125 L 251.152344 77.230469 C 244.777344 73.53125 238.0625 70.371094 231.054688 67.820312 L 230.96875 68.066406 L 229.597656 71.839844 L 227.988281 76.265625 C 234.503906 78.644531 240.75 81.578125 246.675781 85.019531 Z M 246.6875 84.976562 " fill-opacity="1" fill-rule="nonzero"/><path fill="#ffffff" d="M 281.742188 108.417969 L 284.816406 105.835938 L 285.019531 105.664062 C 280.253906 99.996094 275.003906 94.746094 269.335938 89.980469 L 269.164062 90.183594 L 266.582031 93.257812 L 263.550781 96.867188 C 268.820312 101.304688 273.695312 106.179688 278.132812 111.449219 Z M 281.742188 108.417969 " fill-opacity="1" fill-rule="nonzero"/><path fill="#ffffff" d="M 306.941406 144.019531 L 307.15625 143.945312 L 307.1875 143.9375 C 304.628906 136.929688 301.46875 130.210938 297.769531 123.835938 L 297.546875 123.964844 L 294.074219 125.96875 L 289.992188 128.324219 C 293.421875 134.25 296.355469 140.496094 298.734375 147.011719 L 303.160156 145.402344 Z M 306.941406 144.019531 " fill-opacity="1" fill-rule="nonzero"/><path fill="#ffffff" d="M 312.941406 165.386719 L 312.6875 165.429688 L 308.730469 166.125 L 304.09375 166.9375 C 305.269531 173.613281 305.882812 180.480469 305.882812 187.5 L 314.871094 187.5 C 314.859375 179.957031 314.195312 172.5625 312.941406 165.386719 Z M 312.941406 165.386719 " fill-opacity="1" fill-rule="nonzero"/><path fill="#ffffff" d="M 308.722656 208.875 L 304.082031 208.0625 C 302.871094 214.929688 301.082031 221.582031 298.734375 227.988281 L 303.160156 229.597656 L 306.933594 230.96875 L 307.179688 231.054688 C 309.695312 224.164062 311.625 216.996094 312.921875 209.613281 L 312.664062 209.570312 Z M 308.722656 208.875 " fill-opacity="1" fill-rule="nonzero"/><path fill="#ffffff" d="M 294.074219 249.03125 L 289.992188 246.675781 C 286.53125 252.652344 282.558594 258.300781 278.132812 263.550781 L 278.152344 263.570312 L 281.730469 266.582031 L 284.808594 269.164062 L 285.011719 269.335938 C 289.769531 263.679688 294.042969 257.605469 297.761719 251.175781 L 297.535156 251.046875 Z M 294.074219 249.03125 " fill-opacity="1" fill-rule="nonzero"/><path fill="#ffffff" d="M 266.582031 281.742188 L 263.550781 278.132812 C 258.289062 282.546875 252.652344 286.519531 246.675781 289.980469 L 249.03125 294.0625 L 251.035156 297.535156 L 251.152344 297.730469 L 251.175781 297.761719 C 257.605469 294.03125 263.679688 289.757812 269.335938 285 L 269.164062 284.796875 Z M 266.582031 281.742188 " fill-opacity="1" fill-rule="nonzero"/><path fill="#ffffff" d="M 229.597656 303.171875 L 227.988281 298.746094 C 221.582031 301.082031 214.929688 302.882812 208.0625 304.09375 L 208.875 308.730469 L 209.570312 312.6875 L 209.613281 312.941406 C 216.996094 311.644531 224.164062 309.707031 231.0625 307.1875 L 230.980469 306.941406 Z M 229.597656 303.171875 " fill-opacity="1" fill-rule="nonzero"/><path fill="#ffffff" d="M 166.125 308.730469 L 165.429688 312.6875 L 165.386719 312.933594 L 165.386719 312.941406 C 172.574219 314.207031 179.957031 314.871094 187.5 314.871094 L 187.5 305.882812 C 180.492188 305.882812 173.625 305.261719 166.949219 304.09375 Z M 166.125 308.730469 " fill-opacity="1" fill-rule="nonzero"/><path fill="#ffffff" d="M 128.3125 290.023438 L 125.980469 294.074219 L 123.976562 297.546875 L 123.847656 297.769531 C 130.222656 301.46875 136.9375 304.628906 143.945312 307.179688 L 144.03125 306.933594 L 145.402344 303.160156 L 147.011719 298.734375 C 140.496094 296.355469 134.25 293.421875 128.324219 289.980469 Z M 128.3125 290.023438 " fill-opacity="1" fill-rule="nonzero"/><path fill="#ffffff" d="M 96.867188 263.550781 C 96.867188 263.550781 96.867188 263.5625 96.867188 263.550781 L 93.269531 266.582031 L 90.191406 269.164062 L 89.988281 269.335938 C 94.757812 275.003906 100.007812 280.253906 105.675781 285.019531 L 105.847656 284.816406 L 108.429688 281.742188 L 111.460938 278.132812 C 106.179688 273.707031 101.292969 268.820312 96.867188 263.550781 Z M 96.867188 263.550781 " fill-opacity="1" fill-rule="nonzero"/><path fill="#ffffff" d="M 71.828125 229.605469 L 68.058594 230.980469 L 67.84375 231.054688 L 67.8125 231.0625 C 70.371094 238.070312 73.53125 244.789062 77.230469 251.164062 L 77.453125 251.035156 L 80.925781 249.03125 L 85.007812 246.675781 C 81.578125 240.75 78.644531 234.503906 76.265625 227.988281 Z M 71.828125 229.605469 " fill-opacity="1" fill-rule="nonzero"/><path fill="#ffffff" d="M 69.117188 187.5 L 60.128906 187.5 C 60.128906 195.042969 60.792969 202.425781 62.058594 209.613281 L 62.3125 209.570312 L 66.269531 208.875 L 70.90625 208.0625 C 69.738281 201.375 69.117188 194.507812 69.117188 187.5 Z M 69.117188 187.5 " fill-opacity="1" fill-rule="nonzero"/><path fill="#ffffff" d="M 66.269531 166.125 L 70.90625 166.9375 C 72.117188 160.070312 73.90625 153.417969 76.253906 147.011719 L 71.828125 145.402344 L 68.058594 144.03125 L 67.8125 143.945312 C 65.292969 150.835938 63.363281 158.003906 62.066406 165.386719 L 62.324219 165.429688 Z M 66.269531 166.125 " fill-opacity="1" fill-rule="nonzero"/><path fill="#ffffff" d="M 80.925781 125.96875 L 85.007812 128.324219 C 88.46875 122.347656 92.441406 116.699219 96.867188 111.449219 L 96.847656 111.429688 L 93.269531 108.417969 L 90.191406 105.835938 L 89.988281 105.664062 C 85.230469 111.320312 80.957031 117.394531 77.238281 123.824219 L 77.464844 123.953125 Z M 80.925781 125.96875 " fill-opacity="1" fill-rule="nonzero"/><path fill="#ffffff" d="M 166.125 66.277344 L 165.429688 62.324219 L 165.386719 62.066406 C 158.003906 63.363281 150.835938 65.304688 143.9375 67.820312 L 144.019531 68.066406 L 145.394531 71.839844 L 147 76.265625 C 153.40625 73.929688 160.0625 72.128906 166.929688 70.917969 Z M 166.125 66.277344 " fill-opacity="1" fill-rule="nonzero"/><path fill="#ffffff" d="M 123.953125 77.453125 L 123.835938 77.261719 L 123.8125 77.230469 C 117.386719 80.957031 111.3125 85.230469 105.652344 89.988281 L 105.824219 90.191406 L 108.40625 93.269531 L 111.4375 96.878906 C 116.699219 92.464844 122.335938 88.488281 128.3125 85.027344 L 125.957031 80.945312 Z M 123.953125 77.453125 " fill-opacity="1" fill-rule="nonzero"/><path fill="#333333" d="M 123.964844 297.546875 L 123.964844 297.558594 L 125.980469 294.074219 L 125.96875 294.074219 Z M 123.964844 297.546875 " fill-opacity="1" fill-rule="nonzero"/><path fill="#333333" d="M 123.964844 297.546875 L 123.835938 297.769531 L 123.835938 297.78125 L 123.964844 297.558594 Z M 123.964844 297.546875 " fill-opacity="1" fill-rule="nonzero"/><path fill="#333333" d="M 128.3125 290.023438 L 125.96875 294.074219 L 125.980469 294.074219 Z M 128.3125 290.023438 " fill-opacity="1" fill-rule="nonzero"/><path fill="#333333" d="M 165.429688 312.6875 L 166.125 308.730469 Z M 165.429688 312.6875 " fill-opacity="1" fill-rule="nonzero"/><path fill="#333333" d="M 165.429688 312.6875 L 165.386719 312.933594 Z M 165.429688 312.6875 " fill-opacity="1" fill-rule="nonzero"/><path fill="#333333" d="M 166.9375 304.082031 L 166.125 308.730469 L 166.949219 304.082031 Z M 166.9375 304.082031 " fill-opacity="1" fill-rule="nonzero"/><path fill="#333333" d="M 90.183594 269.164062 L 93.257812 266.582031 Z M 90.183594 269.164062 " fill-opacity="1" fill-rule="nonzero"/><path fill="#333333" d="M 90.183594 269.164062 L 89.980469 269.324219 L 89.988281 269.335938 Z M 90.183594 269.164062 " fill-opacity="1" fill-rule="nonzero"/><path fill="#333333" d="M 96.867188 263.550781 L 93.257812 266.582031 L 96.867188 263.5625 Z M 96.867188 263.550781 " fill-opacity="1" fill-rule="nonzero"/><path fill="#333333" d="M 68.058594 230.980469 L 71.828125 229.605469 L 71.828125 229.597656 Z M 68.058594 230.980469 " fill-opacity="1" fill-rule="nonzero"/><path fill="#333333" d="M 68.058594 230.980469 L 67.84375 231.054688 Z M 68.058594 230.980469 " fill-opacity="1" fill-rule="nonzero"/><path fill="#333333" d="M 76.253906 227.988281 L 71.828125 229.597656 L 71.828125 229.605469 L 76.265625 227.988281 Z M 76.253906 227.988281 " fill-opacity="1" fill-rule="nonzero"/><path fill="#333333" d="M 284.816406 269.164062 L 284.816406 269.152344 L 281.742188 266.570312 L 281.742188 266.582031 Z M 284.816406 269.164062 " fill-opacity="1" fill-rule="nonzero"/><path fill="#333333" d="M 284.816406 269.164062 L 285.019531 269.324219 L 284.816406 269.152344 Z M 284.816406 269.164062 " fill-opacity="1" fill-rule="nonzero"/><path fill="#333333" d="M 278.164062 263.570312 L 281.742188 266.582031 L 281.742188 266.570312 Z M 278.164062 263.570312 " fill-opacity="1" fill-rule="nonzero"/><path fill="#333333" d="M 303.171875 229.597656 L 306.941406 230.980469 L 306.941406 230.96875 Z M 303.171875 229.597656 " fill-opacity="1" fill-rule="nonzero"/><path fill="#333333" d="M 306.941406 230.980469 L 307.1875 231.0625 L 307.1875 231.054688 L 306.941406 230.96875 Z M 306.941406 230.980469 " fill-opacity="1" fill-rule="nonzero"/><path fill="#333333" d="M 298.746094 227.988281 L 303.171875 229.597656 Z M 298.746094 227.988281 " fill-opacity="1" fill-rule="nonzero"/><path fill="#333333" d="M 209.570312 312.6875 L 209.582031 312.675781 L 208.875 308.722656 L 208.875 308.730469 Z M 209.570312 312.6875 " fill-opacity="1" fill-rule="nonzero"/><path fill="#333333" d="M 209.582031 312.675781 L 209.570312 312.6875 L 209.613281 312.933594 L 209.625 312.933594 Z M 209.582031 312.675781 " fill-opacity="1" fill-rule="nonzero"/><path fill="#333333" d="M 208.0625 304.082031 L 208.875 308.730469 L 208.875 308.722656 Z M 208.0625 304.082031 " fill-opacity="1" fill-rule="nonzero"/><path fill="#333333" d="M 251.035156 297.546875 L 251.046875 297.546875 L 249.03125 294.074219 Z M 251.035156 297.546875 " fill-opacity="1" fill-rule="nonzero"/><path fill="#333333" d="M 251.046875 297.546875 L 251.035156 297.546875 L 251.152344 297.75 L 251.152344 297.738281 Z M 251.046875 297.546875 " fill-opacity="1" fill-rule="nonzero"/><path fill="#333333" d="M 246.675781 289.992188 L 249.03125 294.074219 Z M 246.675781 289.992188 " fill-opacity="1" fill-rule="nonzero"/><path fill="#333333" d="M 285.011719 105.664062 L 285.019531 105.675781 Z M 285.011719 105.664062 " fill-opacity="1" fill-rule="nonzero"/><path fill="#333333" d="M 284.816406 105.835938 L 281.742188 108.417969 Z M 284.816406 105.835938 " fill-opacity="1" fill-rule="nonzero"/><path fill="#333333" d="M 284.816406 105.835938 L 285.019531 105.675781 L 285.011719 105.664062 Z M 284.816406 105.835938 " fill-opacity="1" fill-rule="nonzero"/><path fill="#333333" d="M 278.132812 111.449219 L 281.742188 108.417969 L 278.132812 111.4375 Z M 278.132812 111.449219 " fill-opacity="1" fill-rule="nonzero"/><path fill="#333333" d="M 209.570312 62.3125 L 208.875 66.269531 L 208.875 66.277344 Z M 209.570312 62.3125 " fill-opacity="1" fill-rule="nonzero"/><path fill="#333333" d="M 209.570312 62.3125 L 209.613281 62.066406 Z M 209.570312 62.3125 " fill-opacity="1" fill-rule="nonzero"/><path fill="#333333" d="M 208.0625 70.917969 L 208.875 66.277344 L 208.875 66.269531 L 208.050781 70.917969 Z M 208.0625 70.917969 " fill-opacity="1" fill-rule="nonzero"/><path fill="#333333" d="M 251.035156 77.453125 L 251.035156 77.441406 L 249.019531 80.925781 L 249.03125 80.925781 Z M 251.035156 77.453125 " fill-opacity="1" fill-rule="nonzero"/><path fill="#333333" d="M 251.035156 77.453125 L 251.164062 77.230469 L 251.164062 77.21875 L 251.035156 77.441406 Z M 251.035156 77.453125 " fill-opacity="1" fill-rule="nonzero"/><path fill="#333333" d="M 246.6875 84.976562 L 249.03125 80.925781 L 249.019531 80.925781 Z M 246.6875 84.976562 " fill-opacity="1" fill-rule="nonzero"/><path fill="#333333" d="M 306.941406 144.019531 L 303.171875 145.394531 L 303.171875 145.402344 Z M 306.941406 144.019531 " fill-opacity="1" fill-rule="nonzero"/><path fill="#333333" d="M 306.941406 144.019531 L 307.15625 143.945312 Z M 306.941406 144.019531 " fill-opacity="1" fill-rule="nonzero"/><path fill="#333333" d="M 298.746094 147.011719 L 303.171875 145.402344 L 303.171875 145.394531 L 298.734375 147.011719 Z M 298.746094 147.011719 " fill-opacity="1" fill-rule="nonzero"/><path fill="#333333" d="M 68.058594 144.019531 L 68.058594 144.03125 L 71.828125 145.402344 Z M 68.058594 144.019531 " fill-opacity="1" fill-rule="nonzero"/><path fill="#333333" d="M 68.058594 144.019531 L 67.8125 143.9375 L 67.8125 143.945312 L 68.058594 144.03125 Z M 68.058594 144.019531 " fill-opacity="1" fill-rule="nonzero"/><path fill="#333333" d="M 76.253906 147.011719 L 71.828125 145.402344 Z M 76.253906 147.011719 " fill-opacity="1" fill-rule="nonzero"/><path fill="#333333" d="M 90.183594 105.835938 L 90.183594 105.847656 L 93.257812 108.429688 L 93.257812 108.417969 Z M 90.183594 105.835938 " fill-opacity="1" fill-rule="nonzero"/><path fill="#333333" d="M 90.183594 105.835938 L 89.980469 105.675781 L 90.183594 105.847656 Z M 90.183594 105.835938 " fill-opacity="1" fill-rule="nonzero"/><path fill="#333333" d="M 96.835938 111.429688 L 93.257812 108.417969 L 93.257812 108.429688 Z M 96.835938 111.429688 " fill-opacity="1" fill-rule="nonzero"/><path fill="#333333" d="M 165.429688 62.3125 L 165.417969 62.324219 L 166.125 66.277344 Z M 165.429688 62.3125 " fill-opacity="1" fill-rule="nonzero"/><path fill="#333333" d="M 165.417969 62.324219 L 165.429688 62.3125 L 165.386719 62.066406 L 165.375 62.066406 Z M 165.417969 62.324219 " fill-opacity="1" fill-rule="nonzero"/><path fill="#333333" d="M 166.9375 70.917969 L 166.125 66.277344 Z M 166.9375 70.917969 " fill-opacity="1" fill-rule="nonzero"/><path fill="#333333" d="M 123.964844 77.453125 L 123.953125 77.453125 L 125.96875 80.925781 Z M 123.964844 77.453125 " fill-opacity="1" fill-rule="nonzero"/><path fill="#333333" d="M 123.953125 77.453125 L 123.964844 77.453125 L 123.847656 77.25 L 123.847656 77.261719 Z M 123.953125 77.453125 " fill-opacity="1" fill-rule="nonzero"/><path fill="#333333" d="M 128.324219 85.007812 L 125.96875 80.925781 Z M 128.324219 85.007812 " fill-opacity="1" fill-rule="nonzero"/></svg>