<svg xmlns="http://www.w3.org/2000/svg" xmlns:xlink="http://www.w3.org/1999/xlink" width="500" zoomAndPan="magnify" viewBox="0 0 375 374.999991" height="500" preserveAspectRatio="xMidYMid meet" version="1.0"><path fill="#231f20" d="M 12.015625 95.40625 L 145.09375 10.703125 C 154.238281 4.886719 166.5 7.59375 172.328125 16.742188 L 314.230469 239.277344 C 320.0625 248.417969 317.34375 260.660156 308.195312 266.484375 L 175.113281 351.183594 C 165.96875 357.003906 153.714844 354.292969 147.886719 345.148438 L 5.980469 122.617188 C 0.152344 113.472656 2.863281 101.230469 12.015625 95.40625 " fill-opacity="1" fill-rule="evenodd"/><path fill="#ffffff" d="M 16.121094 97.816406 L 143.242188 16.910156 C 151.984375 11.347656 163.6875 13.9375 169.261719 22.671875 L 304.816406 235.246094 C 310.382812 243.980469 307.785156 255.675781 299.046875 261.238281 L 171.929688 342.144531 C 163.1875 347.707031 151.476562 345.117188 145.910156 336.382812 L 10.355469 123.808594 C 4.789062 115.074219 7.378906 103.378906 16.121094 97.816406 " fill-opacity="1" fill-rule="evenodd"/><path fill="#e9e9e9" d="M 58.089844 79.125 L 59.054688 78.507812 C 59.195312 79.089844 59.367188 79.65625 59.566406 80.230469 L 94.625 181.375 L 57.566406 95.832031 C 55.160156 90.269531 55.542969 84.171875 58.089844 79.125 " fill-opacity="1" fill-rule="evenodd"/><path fill="#231f20" d="M 37.097656 115.800781 C 34.867188 117.222656 34.472656 117.417969 32.25 118.832031 C 32.117188 118.339844 31.910156 117.492188 31.78125 116.992188 C 33.753906 115.738281 33.625 115.882812 35.597656 114.625 C 33.046875 112.441406 32.035156 111.78125 29.0625 109.414062 C 30.191406 114.257812 32.515625 124.332031 34.171875 128.484375 C 34.816406 130.082031 36.578125 129.390625 36.929688 129.269531 L 37.109375 129.558594 C 35.464844 130.132812 32.84375 131.699219 31.65625 133.027344 L 31.472656 132.742188 C 31.730469 132.484375 32.4375 131.75 32.390625 130.539062 C 32.171875 126.761719 28.550781 112.972656 26.945312 107.171875 C 27.367188 106.761719 28.039062 105.542969 27.945312 104.882812 C 31.113281 107.867188 42.933594 117.945312 46.925781 120.59375 C 47.632812 121.0625 49.179688 121.191406 49.78125 121.085938 L 49.960938 121.375 C 48.085938 122.117188 45.414062 123.757812 43.976562 125.183594 L 43.796875 124.902344 C 44.183594 124.332031 44.90625 123.503906 44.214844 122.410156 C 43.71875 121.597656 39.066406 117.546875 37.097656 115.800781 " fill-opacity="1" fill-rule="nonzero"/><path fill="#231f20" d="M 55.03125 148.222656 C 56.917969 150.664062 60.398438 153.027344 62.308594 153.808594 L 55.847656 157.917969 C 55.953125 155.855469 55.28125 151.707031 53.867188 148.957031 C 53.921875 151.4375 53.273438 153.105469 51.160156 154.445312 C 48.40625 156.199219 44.746094 155.386719 42.988281 152.636719 C 39.808594 147.640625 41.621094 139.476562 43.433594 131.3125 C 51.613281 133.121094 59.785156 134.933594 62.964844 139.925781 C 64.71875 142.679688 63.910156 146.335938 61.152344 148.089844 C 59.039062 149.433594 57.246094 149.316406 55.03125 148.222656 " fill-opacity="1" fill-rule="evenodd"/><path fill="#231f20" d="M 71.75 55.160156 L 220.851562 3.574219 C 231.105469 0.03125 242.394531 5.511719 245.945312 15.75 L 332.363281 265.085938 C 335.914062 275.328125 330.433594 286.609375 320.179688 290.152344 L 171.078125 341.734375 C 160.832031 345.28125 149.539062 339.804688 145.992188 329.5625 L 59.566406 80.226562 C 56.015625 69.988281 61.496094 58.707031 71.75 55.160156 " fill-opacity="1" fill-rule="evenodd"/><path fill="#ffffff" d="M 75.1875 58.457031 L 217.617188 9.179688 C 227.40625 5.792969 238.195312 11.027344 241.582031 20.8125 L 324.136719 258.984375 C 327.527344 268.765625 322.292969 279.542969 312.5 282.929688 L 170.074219 332.207031 C 160.28125 335.589844 149.496094 330.359375 146.105469 320.578125 L 63.546875 82.402344 C 60.160156 72.621094 65.394531 61.839844 75.1875 58.457031 " fill-opacity="1" fill-rule="evenodd"/><path fill="#e9e9e9" d="M 151.535156 264.640625 L 113.65625 76.0625 C 112.019531 67.914062 115.730469 59.875 122.347656 55.605469 C 122.003906 57.527344 121.949219 59.539062 122.242188 61.574219 L 151.535156 264.640625 " fill-opacity="1" fill-rule="evenodd"/><path fill="#ed1c24" d="M 91.417969 80.804688 C 88.921875 81.671875 88.496094 81.765625 85.996094 82.632812 C 85.988281 82.121094 85.976562 81.25 85.972656 80.738281 C 88.183594 79.976562 88.019531 80.082031 90.230469 79.3125 C 88.257812 76.605469 87.425781 75.722656 85.082031 72.734375 C 85.058594 77.710938 84.984375 88.046875 85.632812 92.464844 C 85.882812 94.171875 87.765625 93.902344 88.132812 93.871094 L 88.246094 94.1875 C 86.515625 94.371094 83.589844 95.289062 82.128906 96.304688 L 82.023438 95.988281 C 82.328125 95.792969 83.183594 95.242188 83.429688 94.050781 C 84.085938 90.324219 83.757812 76.074219 83.546875 70.0625 C 84.046875 69.757812 84.984375 68.734375 85.046875 68.066406 C 87.4375 71.703125 96.597656 84.246094 99.867188 87.746094 C 100.441406 88.359375 101.929688 88.851562 102.527344 88.882812 L 102.640625 89.207031 C 100.648438 89.496094 97.660156 90.46875 95.929688 91.53125 L 95.824219 91.207031 C 96.332031 90.742188 97.230469 90.105469 96.804688 88.882812 C 96.519531 87.976562 92.929688 82.960938 91.417969 80.804688 " fill-opacity="1" fill-rule="nonzero"/><path fill="#ed1c24" d="M 86.769531 115.257812 C 89.640625 111.566406 93.375 103.191406 93.664062 96.441406 C 98.074219 101.5625 106.191406 105.84375 110.726562 106.96875 C 107.863281 110.65625 104.128906 119.035156 103.835938 125.78125 C 99.429688 120.664062 91.308594 116.386719 86.769531 115.257812 " fill-opacity="1" fill-rule="evenodd"/><path fill="#231f20" d="M 135.457031 36.371094 L 291.632812 13.886719 C 302.367188 12.347656 312.421875 19.855469 313.964844 30.578125 L 351.632812 291.746094 C 353.183594 302.46875 345.660156 312.511719 334.925781 314.054688 L 178.75 336.539062 C 168.011719 338.089844 157.964844 330.578125 156.414062 319.847656 L 118.75 58.6875 C 117.199219 47.957031 124.714844 37.921875 135.457031 36.371094 " fill-opacity="1" fill-rule="evenodd"/><path fill="#ffffff" d="M 138.207031 40.253906 L 287.390625 18.78125 C 297.648438 17.300781 307.246094 24.480469 308.726562 34.726562 L 344.710938 284.199219 C 346.191406 294.449219 339.007812 304.042969 328.753906 305.515625 L 179.5625 326.996094 C 169.304688 328.46875 159.707031 321.296875 158.226562 311.046875 L 122.242188 61.574219 C 120.765625 51.324219 127.945312 41.734375 138.207031 40.253906 " fill-opacity="1" fill-rule="evenodd"/><path fill="#e9e9e9" d="M 166.574219 282.46875 L 169.546875 58.015625 C 169.636719 51.460938 172.972656 45.667969 177.984375 42.140625 C 177.609375 43.519531 177.371094 44.957031 177.300781 46.441406 L 166.574219 282.46875 " fill-opacity="1" fill-rule="evenodd"/><path fill="#231f20" d="M 149.910156 65.273438 C 147.296875 65.648438 146.859375 65.660156 144.242188 66.042969 C 144.328125 65.535156 144.492188 64.679688 144.578125 64.175781 C 146.890625 63.839844 146.714844 63.914062 149.027344 63.582031 C 147.605469 60.550781 146.960938 59.523438 145.222656 56.148438 C 144.253906 61.03125 142.222656 71.167969 142.023438 75.628906 C 141.949219 77.347656 143.847656 77.441406 144.210938 77.484375 L 144.261719 77.816406 C 142.53125 77.660156 139.488281 78.015625 137.855469 78.734375 L 137.8125 78.402344 C 138.148438 78.269531 139.101562 77.890625 139.554688 76.765625 C 140.910156 73.234375 143.285156 59.175781 144.21875 53.234375 C 144.765625 53.027344 145.878906 52.203125 146.066406 51.554688 C 147.730469 55.582031 154.351562 69.625 156.902344 73.683594 C 157.34375 74.394531 158.707031 75.15625 159.292969 75.300781 L 159.34375 75.636719 C 157.332031 75.550781 154.214844 75.941406 152.316406 76.648438 L 152.269531 76.316406 C 152.851562 75.960938 153.859375 75.5 153.671875 74.21875 C 153.566406 73.277344 150.992188 67.671875 149.910156 65.273438 " fill-opacity="1" fill-rule="nonzero"/><path fill="#231f20" d="M 153.339844 103.058594 C 153.738281 104.53125 154.25 105.957031 154.921875 107.261719 C 155.769531 108.914062 156.757812 110.386719 157.511719 111.21875 L 153.589844 111.78125 L 149.671875 112.347656 C 150.160156 111.335938 150.691406 109.644531 151.039062 107.816406 C 151.316406 106.378906 151.402344 104.871094 151.363281 103.339844 C 150.371094 105.289062 148.789062 106.890625 146.484375 107.230469 C 143.230469 107.695312 140.210938 105.4375 139.742188 102.183594 C 139.269531 98.933594 141.53125 95.910156 144.785156 95.445312 C 145.25 95.382812 145.960938 95.300781 147.609375 95.554688 C 143.273438 92.460938 143.605469 85.132812 149.617188 84.203125 C 155.644531 83.402344 158.03125 90.335938 154.746094 94.53125 C 156.25 93.8125 156.964844 93.691406 157.417969 93.628906 C 160.675781 93.160156 163.699219 95.414062 164.167969 98.664062 C 164.636719 101.921875 162.375 104.9375 159.121094 105.40625 C 156.8125 105.738281 154.84375 104.644531 153.339844 103.058594 " fill-opacity="1" fill-rule="evenodd"/><path fill="#231f20" d="M 197.902344 27.644531 L 355.527344 34.800781 C 366.359375 35.285156 374.828125 44.550781 374.332031 55.375 L 362.355469 318.960938 C 361.863281 329.792969 352.589844 338.246094 341.753906 337.757812 L 184.132812 330.605469 C 173.289062 330.109375 164.832031 320.851562 165.324219 310.023438 L 177.300781 46.433594 C 177.796875 35.609375 187.0625 27.152344 197.902344 27.644531 " fill-opacity="1" fill-rule="evenodd"/><path fill="#ffffff" d="M 199.871094 31.976562 L 350.445312 38.808594 C 360.792969 39.273438 368.886719 48.121094 368.410156 58.464844 L 356.96875 310.261719 C 356.496094 320.605469 347.640625 328.679688 337.292969 328.207031 L 186.71875 321.378906 C 176.363281 320.910156 168.277344 312.0625 168.753906 301.71875 L 180.195312 49.925781 C 180.667969 39.585938 189.523438 31.503906 199.871094 31.976562 " fill-opacity="1" fill-rule="evenodd"/><path fill="#deddde" d="M 364.96875 47.441406 C 367.078125 50.644531 368.242188 54.511719 368.054688 58.621094 L 356.613281 310.410156 C 356.144531 320.753906 347.292969 328.832031 336.9375 328.363281 L 186.363281 321.527344 C 182.226562 321.339844 178.445312 319.8125 175.433594 317.382812 C 200.78125 322.144531 282.585938 318.007812 325.867188 321.023438 C 336.226562 321.351562 350.296875 309.628906 350.992188 299.296875 C 355.90625 226.550781 368.574219 85.550781 364.96875 47.441406 " fill-opacity="1" fill-rule="evenodd"/><path fill="#ed1c24" d="M 206.679688 58.746094 C 204.042969 58.621094 203.605469 58.550781 200.96875 58.433594 C 201.152344 57.957031 201.464844 57.140625 201.644531 56.667969 C 203.980469 56.773438 203.792969 56.808594 206.132812 56.917969 C 205.300781 53.671875 204.855469 52.546875 203.789062 48.902344 C 201.917969 53.515625 198.019531 63.089844 196.996094 67.433594 C 196.597656 69.105469 198.4375 69.5625 198.796875 69.667969 L 198.777344 70 C 197.101562 69.53125 194.054688 69.308594 192.316406 69.707031 L 192.335938 69.371094 C 192.683594 69.308594 193.691406 69.105469 194.351562 68.097656 C 196.347656 64.875 201.320312 51.515625 203.34375 45.847656 C 203.925781 45.75 205.175781 45.148438 205.476562 44.542969 C 206.355469 48.808594 210.222656 63.84375 211.96875 68.308594 C 212.273438 69.09375 213.464844 70.09375 214.015625 70.347656 L 214.003906 70.691406 C 212.042969 70.226562 208.90625 70.023438 206.910156 70.367188 L 206.925781 70.03125 C 207.566406 69.789062 208.636719 69.527344 208.699219 68.234375 C 208.769531 67.289062 207.292969 61.296875 206.679688 58.746094 " fill-opacity="1" fill-rule="nonzero"/><path fill="#ed1c24" d="M 264.253906 229.835938 C 240.589844 203.949219 217.246094 178.078125 218.363281 153.324219 C 218.996094 139.476562 230.75 128.746094 244.609375 129.371094 C 256.53125 129.90625 262.535156 135.84375 267.996094 147.417969 C 274.488281 136.386719 281.003906 131.019531 292.925781 131.5625 C 306.785156 132.191406 317.519531 143.945312 316.886719 157.792969 C 315.757812 182.546875 290.164062 206.199219 264.253906 229.835938 " fill-opacity="1" fill-rule="evenodd"/><path fill="#ed1c24" d="M 201.730469 101.648438 C 195.996094 95.375 190.335938 89.109375 190.609375 83.101562 C 190.761719 79.75 193.609375 77.148438 196.972656 77.304688 C 199.859375 77.433594 201.3125 78.871094 202.636719 81.671875 C 204.210938 79 205.792969 77.703125 208.679688 77.835938 C 212.035156 77.984375 214.640625 80.832031 214.484375 84.1875 C 214.210938 90.1875 208.011719 95.917969 201.730469 101.648438 " fill-opacity="1" fill-rule="evenodd"/><path fill="#ed1c24" d="M 330.484375 301.445312 C 333.121094 301.566406 333.558594 301.632812 336.195312 301.75 C 336.011719 302.234375 335.699219 303.042969 335.519531 303.523438 C 333.183594 303.417969 333.371094 303.375 331.035156 303.269531 C 331.859375 306.519531 332.308594 307.636719 333.375 311.285156 C 335.238281 306.671875 339.144531 297.09375 340.167969 292.75 C 340.566406 291.078125 338.71875 290.628906 338.367188 290.523438 L 338.386719 290.183594 C 340.0625 290.660156 343.113281 290.882812 344.847656 290.476562 L 344.828125 290.816406 C 344.480469 290.878906 343.472656 291.078125 342.8125 292.09375 C 340.816406 295.308594 335.84375 308.667969 333.820312 314.335938 C 333.238281 314.4375 331.988281 315.042969 331.691406 315.640625 C 330.808594 311.378906 326.941406 296.339844 325.199219 291.875 C 324.890625 291.089844 323.699219 290.089844 323.148438 289.835938 L 323.160156 289.5 C 325.121094 289.964844 328.257812 290.160156 330.253906 289.816406 L 330.238281 290.152344 C 329.597656 290.398438 328.523438 290.660156 328.464844 291.953125 C 328.398438 292.894531 329.871094 298.886719 330.484375 301.445312 " fill-opacity="1" fill-rule="nonzero"/><path fill="#ed1c24" d="M 335.433594 258.535156 C 341.167969 264.808594 346.824219 271.078125 346.554688 277.082031 C 346.402344 280.433594 343.554688 283.039062 340.195312 282.882812 C 337.308594 282.757812 335.851562 281.316406 334.527344 278.511719 C 332.953125 281.183594 331.371094 282.480469 328.484375 282.355469 C 325.121094 282.199219 322.523438 279.355469 322.679688 275.996094 C 322.949219 269.996094 329.152344 264.265625 335.433594 258.535156 " fill-opacity="1" fill-rule="evenodd"/></svg>