<svg xmlns="http://www.w3.org/2000/svg" xmlns:xlink="http://www.w3.org/1999/xlink" width="1728" zoomAndPan="magnify" viewBox="0 0 1296 1727.999927" height="2304" preserveAspectRatio="xMidYMid meet" version="1.0"><path fill="#231f20" d="M 431.71875 677.175781 L 615.632812 559.910156 C 628.273438 551.855469 645.214844 555.605469 653.273438 568.265625 L 849.382812 876.359375 C 857.441406 889.011719 853.683594 905.960938 841.042969 914.023438 L 657.121094 1031.289062 C 644.480469 1039.34375 627.546875 1035.59375 619.492188 1022.929688 L 423.378906 714.847656 C 415.320312 702.183594 419.070312 685.238281 431.71875 677.175781 " fill-opacity="1" fill-rule="evenodd"/><path fill="#ffffff" d="M 437.394531 680.511719 L 613.074219 568.5 C 625.15625 560.800781 641.328125 564.386719 649.03125 576.476562 L 836.371094 870.777344 C 844.066406 882.867188 840.472656 899.0625 828.402344 906.761719 L 652.71875 1018.773438 C 640.636719 1026.472656 624.457031 1022.886719 616.761719 1010.796875 L 429.421875 716.496094 C 421.730469 704.40625 425.3125 688.210938 437.394531 680.511719 " fill-opacity="1" fill-rule="evenodd"/><path fill="#e9e9e9" d="M 495.394531 654.636719 L 496.726562 653.78125 C 496.925781 654.582031 497.15625 655.371094 497.433594 656.164062 L 545.886719 796.195312 L 494.671875 677.761719 C 491.34375 670.0625 491.871094 661.617188 495.394531 654.636719 " fill-opacity="1" fill-rule="evenodd"/><path fill="#231f20" d="M 466.382812 705.410156 C 463.296875 707.378906 462.753906 707.648438 459.679688 709.609375 C 459.5 708.925781 459.214844 707.75 459.03125 707.058594 C 461.761719 705.320312 461.582031 705.519531 464.308594 703.785156 C 460.785156 700.757812 459.386719 699.84375 455.277344 696.566406 C 456.839844 703.273438 460.050781 717.222656 462.339844 722.96875 C 463.230469 725.183594 465.664062 724.222656 466.148438 724.058594 L 466.398438 724.457031 C 464.128906 725.25 460.5 727.421875 458.859375 729.261719 L 458.609375 728.863281 C 458.964844 728.507812 459.941406 727.488281 459.878906 725.8125 C 459.578125 720.585938 454.570312 701.492188 452.347656 693.464844 C 452.9375 692.894531 453.859375 691.210938 453.730469 690.292969 C 458.109375 694.425781 474.445312 708.382812 479.964844 712.046875 C 480.941406 712.695312 483.082031 712.875 483.910156 712.730469 L 484.160156 713.125 C 481.570312 714.15625 477.875 716.425781 475.890625 718.398438 L 475.636719 718.007812 C 476.171875 717.222656 477.175781 716.074219 476.21875 714.5625 C 475.535156 713.4375 469.101562 707.828125 466.382812 705.410156 " fill-opacity="1" fill-rule="nonzero"/><path fill="#231f20" d="M 491.164062 750.296875 C 493.773438 753.675781 498.582031 756.949219 501.222656 758.03125 L 492.296875 763.71875 C 492.441406 760.867188 491.507812 755.117188 489.558594 751.316406 C 489.636719 754.746094 488.738281 757.054688 485.820312 758.914062 C 482.011719 761.339844 476.949219 760.21875 474.523438 756.40625 C 470.128906 749.492188 472.632812 738.1875 475.136719 726.882812 C 486.441406 729.390625 497.734375 731.898438 502.128906 738.8125 C 504.558594 742.621094 503.433594 747.6875 499.625 750.113281 C 496.707031 751.972656 494.230469 751.808594 491.164062 750.296875 " fill-opacity="1" fill-rule="evenodd"/><path fill="#231f20" d="M 514.273438 621.457031 L 720.332031 550.039062 C 734.503906 545.128906 750.105469 552.71875 755.011719 566.890625 L 874.441406 912.085938 C 879.347656 926.269531 871.773438 941.882812 857.605469 946.792969 L 651.542969 1018.203125 C 637.382812 1023.113281 621.777344 1015.535156 616.875 1001.351562 L 497.433594 656.15625 C 492.527344 641.984375 500.101562 626.367188 514.273438 621.457031 " fill-opacity="1" fill-rule="evenodd"/><path fill="#ffffff" d="M 519.019531 626.023438 L 715.859375 557.800781 C 729.390625 553.105469 744.304688 560.359375 748.984375 573.902344 L 863.070312 903.644531 C 867.757812 917.183594 860.523438 932.101562 846.992188 936.792969 L 650.152344 1005.015625 C 636.621094 1009.699219 621.71875 1002.457031 617.03125 988.914062 L 502.933594 659.171875 C 498.253906 645.628906 505.488281 630.707031 519.019531 626.023438 " fill-opacity="1" fill-rule="evenodd"/><path fill="#e9e9e9" d="M 624.535156 911.472656 L 572.1875 650.390625 C 569.925781 639.113281 575.054688 627.984375 584.199219 622.070312 C 583.722656 624.734375 583.644531 627.515625 584.050781 630.332031 L 624.535156 911.472656 " fill-opacity="1" fill-rule="evenodd"/><path fill="#ed1c24" d="M 541.457031 656.960938 C 538 658.160156 537.414062 658.292969 533.960938 659.492188 C 533.953125 658.785156 533.933594 657.574219 533.925781 656.867188 C 536.980469 655.8125 536.757812 655.957031 539.816406 654.894531 C 537.085938 651.144531 535.9375 649.925781 532.699219 645.785156 C 532.664062 652.675781 532.5625 666.984375 533.460938 673.105469 C 533.804688 675.464844 536.402344 675.09375 536.914062 675.046875 L 537.070312 675.488281 C 534.675781 675.738281 530.636719 677.011719 528.613281 678.417969 L 528.46875 677.976562 C 528.890625 677.710938 530.074219 676.949219 530.410156 675.300781 C 531.316406 670.140625 530.867188 650.410156 530.574219 642.085938 C 531.265625 641.664062 532.5625 640.246094 532.648438 639.320312 C 535.953125 644.359375 548.613281 661.722656 553.128906 666.570312 C 553.925781 667.417969 555.980469 668.101562 556.808594 668.144531 L 556.964844 668.59375 C 554.210938 668.992188 550.082031 670.339844 547.691406 671.808594 L 547.542969 671.359375 C 548.242188 670.71875 549.484375 669.835938 548.898438 668.144531 C 548.5 666.890625 543.546875 659.941406 541.457031 656.960938 " fill-opacity="1" fill-rule="nonzero"/><path fill="#ed1c24" d="M 535.03125 704.65625 C 538.996094 699.550781 544.15625 687.953125 544.554688 678.609375 C 550.652344 685.695312 561.867188 691.625 568.136719 693.179688 C 564.183594 698.289062 559.019531 709.886719 558.613281 719.226562 C 552.527344 712.140625 541.300781 706.222656 535.03125 704.65625 " fill-opacity="1" fill-rule="evenodd"/><path fill="#231f20" d="M 602.316406 595.445312 L 818.152344 564.316406 C 832.984375 562.183594 846.878906 572.578125 849.011719 587.425781 L 901.074219 948.996094 C 903.214844 963.84375 892.820312 977.75 877.984375 979.882812 L 662.148438 1011.011719 C 647.304688 1013.15625 633.417969 1002.761719 631.277344 987.90625 L 579.226562 626.339844 C 577.082031 611.484375 587.472656 597.589844 602.316406 595.445312 " fill-opacity="1" fill-rule="evenodd"/><path fill="#ffffff" d="M 606.113281 600.820312 L 812.289062 571.09375 C 826.464844 569.042969 839.730469 578.980469 841.777344 593.164062 L 891.507812 938.546875 C 893.550781 952.738281 883.621094 966.023438 869.453125 968.0625 L 663.269531 997.800781 C 649.09375 999.839844 635.828125 989.910156 633.78125 975.71875 L 584.050781 630.332031 C 582.015625 616.144531 591.9375 602.867188 606.113281 600.820312 " fill-opacity="1" fill-rule="evenodd"/><path fill="#e9e9e9" d="M 645.320312 936.15625 L 649.429688 625.40625 C 649.550781 616.332031 654.160156 608.3125 661.085938 603.429688 C 660.566406 605.339844 660.238281 607.328125 660.144531 609.386719 L 645.320312 936.15625 " fill-opacity="1" fill-rule="evenodd"/><path fill="#231f20" d="M 622.289062 635.457031 C 618.679688 635.976562 618.074219 635.996094 614.457031 636.523438 C 614.578125 635.820312 614.800781 634.636719 614.921875 633.9375 C 618.117188 633.472656 617.875 633.574219 621.070312 633.117188 C 619.101562 628.917969 618.210938 627.5 615.8125 622.824219 C 614.472656 629.582031 611.667969 643.617188 611.390625 649.796875 C 611.289062 652.171875 613.914062 652.300781 614.414062 652.363281 L 614.484375 652.820312 C 612.089844 652.605469 607.886719 653.097656 605.632812 654.089844 L 605.570312 653.632812 C 606.039062 653.453125 607.351562 652.925781 607.980469 651.367188 C 609.855469 646.476562 613.136719 627.015625 614.421875 618.789062 C 615.183594 618.503906 616.71875 617.363281 616.976562 616.464844 C 619.273438 622.039062 628.429688 641.480469 631.953125 647.101562 C 632.566406 648.085938 634.445312 649.140625 635.257812 649.339844 L 635.328125 649.804688 C 632.546875 649.683594 628.238281 650.226562 625.613281 651.203125 L 625.554688 650.746094 C 626.355469 650.253906 627.746094 649.613281 627.488281 647.84375 C 627.339844 646.539062 623.78125 638.777344 622.289062 635.457031 " fill-opacity="1" fill-rule="nonzero"/><path fill="#231f20" d="M 627.03125 687.769531 C 627.582031 689.808594 628.289062 691.78125 629.214844 693.585938 C 630.386719 695.875 631.753906 697.914062 632.796875 699.066406 L 627.375 699.84375 L 621.960938 700.628906 C 622.632812 699.230469 623.367188 696.886719 623.851562 694.355469 C 624.230469 692.367188 624.351562 690.277344 624.300781 688.160156 C 622.925781 690.855469 620.742188 693.078125 617.554688 693.542969 C 613.058594 694.191406 608.886719 691.0625 608.238281 686.558594 C 607.582031 682.058594 610.707031 677.875 615.207031 677.226562 C 615.847656 677.140625 616.832031 677.027344 619.109375 677.382812 C 613.117188 673.09375 613.574219 662.949219 621.882812 661.660156 C 630.214844 660.554688 633.515625 670.15625 628.972656 675.964844 C 631.054688 674.972656 632.039062 674.796875 632.667969 674.710938 C 637.167969 674.0625 641.347656 677.183594 641.992188 681.6875 C 642.640625 686.195312 639.515625 690.371094 635.015625 691.019531 C 631.832031 691.476562 629.109375 689.964844 627.03125 687.769531 " fill-opacity="1" fill-rule="evenodd"/><path fill="#231f20" d="M 688.613281 583.363281 L 906.453125 593.269531 C 921.425781 593.941406 933.128906 606.765625 932.445312 621.753906 L 915.890625 986.675781 C 915.210938 1001.671875 902.394531 1013.371094 887.421875 1012.699219 L 669.582031 1002.792969 C 654.601562 1002.113281 642.910156 989.296875 643.589844 974.300781 L 660.144531 609.375 C 660.828125 594.390625 673.632812 582.679688 688.613281 583.363281 " fill-opacity="1" fill-rule="evenodd"/><path fill="#ffffff" d="M 691.335938 589.363281 L 899.433594 598.816406 C 913.734375 599.464844 924.914062 611.710938 924.257812 626.03125 L 908.449219 974.628906 C 907.792969 988.949219 895.554688 1000.132812 881.257812 999.476562 L 673.160156 990.023438 C 658.851562 989.375 647.675781 977.128906 648.332031 962.808594 L 664.144531 614.207031 C 664.800781 599.894531 677.035156 588.703125 691.335938 589.363281 " fill-opacity="1" fill-rule="evenodd"/><path fill="#deddde" d="M 919.5 610.769531 C 922.417969 615.203125 924.027344 620.558594 923.765625 626.246094 L 907.957031 974.835938 C 907.308594 989.15625 895.074219 1000.339844 880.765625 999.691406 L 672.664062 990.230469 C 666.949219 989.96875 661.726562 987.851562 657.5625 984.492188 C 692.597656 991.085938 805.648438 985.355469 865.460938 989.527344 C 879.78125 989.988281 899.226562 973.757812 900.183594 959.453125 C 906.980469 858.738281 924.484375 663.527344 919.5 610.769531 " fill-opacity="1" fill-rule="evenodd"/><path fill="#ed1c24" d="M 700.746094 626.417969 C 697.101562 626.246094 696.5 626.152344 692.855469 625.988281 C 693.105469 625.332031 693.535156 624.199219 693.789062 623.542969 C 697.015625 623.6875 696.757812 623.738281 699.988281 623.886719 C 698.839844 619.394531 698.226562 617.835938 696.75 612.789062 C 694.167969 619.175781 688.777344 632.433594 687.363281 638.449219 C 686.808594 640.765625 689.359375 641.394531 689.851562 641.542969 L 689.824219 642 C 687.511719 641.351562 683.296875 641.042969 680.894531 641.59375 L 680.921875 641.128906 C 681.40625 641.042969 682.796875 640.765625 683.710938 639.363281 C 686.464844 634.90625 693.339844 616.410156 696.136719 608.5625 C 696.9375 608.425781 698.667969 607.597656 699.082031 606.757812 C 700.296875 612.660156 705.644531 633.480469 708.054688 639.660156 C 708.476562 640.746094 710.125 642.128906 710.886719 642.484375 L 710.867188 642.960938 C 708.15625 642.3125 703.820312 642.035156 701.066406 642.511719 L 701.085938 642.042969 C 701.972656 641.707031 703.449219 641.34375 703.535156 639.554688 C 703.632812 638.25 701.59375 629.953125 700.746094 626.417969 " fill-opacity="1" fill-rule="nonzero"/><path fill="#ed1c24" d="M 780.3125 863.285156 C 747.609375 827.445312 715.347656 791.632812 716.894531 757.355469 C 717.765625 738.1875 734.011719 723.332031 753.164062 724.195312 C 769.636719 724.941406 777.9375 733.160156 785.484375 749.179688 C 794.457031 733.910156 803.460938 726.476562 819.9375 727.230469 C 839.089844 728.101562 853.925781 744.375 853.054688 763.542969 C 851.492188 797.820312 816.121094 830.566406 780.3125 863.285156 " fill-opacity="1" fill-rule="evenodd"/><path fill="#ed1c24" d="M 693.910156 685.816406 C 685.980469 677.132812 678.15625 668.453125 678.539062 660.140625 C 678.746094 655.5 682.683594 651.894531 687.328125 652.113281 C 691.316406 652.292969 693.328125 654.28125 695.160156 658.160156 C 697.335938 654.464844 699.519531 652.664062 703.511719 652.847656 C 708.148438 653.054688 711.75 656.996094 711.53125 661.644531 C 711.152344 669.949219 702.585938 677.882812 693.910156 685.816406 " fill-opacity="1" fill-rule="evenodd"/><path fill="#ed1c24" d="M 871.84375 962.425781 C 875.488281 962.589844 876.09375 962.6875 879.738281 962.851562 C 879.484375 963.515625 879.054688 964.640625 878.804688 965.304688 C 875.574219 965.15625 875.832031 965.097656 872.605469 964.949219 C 873.742188 969.453125 874.367188 971 875.84375 976.046875 C 878.414062 969.660156 883.8125 956.402344 885.226562 950.386719 C 885.78125 948.074219 883.226562 947.449219 882.742188 947.304688 L 882.765625 946.835938 C 885.082031 947.492188 889.296875 947.804688 891.695312 947.242188 L 891.671875 947.710938 C 891.1875 947.796875 889.796875 948.074219 888.882812 949.480469 C 886.125 953.933594 879.253906 972.425781 876.453125 980.273438 C 875.652344 980.410156 873.925781 981.25 873.511719 982.078125 C 872.292969 976.175781 866.949219 955.359375 864.539062 949.179688 C 864.117188 948.089844 862.464844 946.707031 861.707031 946.351562 L 861.722656 945.886719 C 864.433594 946.535156 868.769531 946.800781 871.523438 946.328125 L 871.507812 946.792969 C 870.617188 947.128906 869.132812 947.492188 869.054688 949.28125 C 868.960938 950.585938 870.996094 958.882812 871.84375 962.425781 " fill-opacity="1" fill-rule="nonzero"/><path fill="#ed1c24" d="M 878.683594 903.019531 C 886.609375 911.707031 894.425781 920.382812 894.054688 928.695312 C 893.847656 933.335938 889.910156 936.941406 885.261719 936.726562 C 881.273438 936.550781 879.261719 934.554688 877.429688 930.675781 C 875.253906 934.375 873.070312 936.171875 869.082031 936 C 864.433594 935.785156 860.84375 931.84375 861.058594 927.191406 C 861.429688 918.886719 870.003906 910.953125 878.683594 903.019531 " fill-opacity="1" fill-rule="evenodd"/></svg>