<svg xmlns="http://www.w3.org/2000/svg" xmlns:xlink="http://www.w3.org/1999/xlink" fill="#000000" height="800" width="800" version="1.1" id="Capa_1" viewBox="0 0 512.001 512.001" xml:space="preserve">
<g>
	<path d="M491.176,154.704c-13.346-30.944-32.412-58.6-56.669-82.201C384.552,23.9,318.611-1.816,248.812,0.1   C181.666,1.941,118.889,30.263,72.045,79.849C25.587,129.027,0.001,193.418,0.001,261.16v210.854   c0,22.049,17.938,39.987,39.987,39.987h432.026c22.049,0,39.987-17.938,39.987-39.987V256.001   C512.001,220.825,504.994,186.744,491.176,154.704z M496.001,472.014c0,13.227-10.76,23.987-23.987,23.987H39.987   c-13.227,0-23.987-10.76-23.987-23.987V261.16c0-63.639,24.034-124.128,67.675-170.323   c43.905-46.475,102.707-73.019,165.575-74.743c2.276-0.063,4.539-0.093,6.807-0.093c62.905,0,122.089,23.99,167.292,67.97   c46.85,45.583,72.651,106.678,72.651,172.03V472.014z"/>
	<path d="M120.001,328.001h-64c-8.822,0-16,7.178-16,16v112c0,8.822,7.178,16,16,16h64c8.822,0,16-7.178,16-16v-112   C136.001,335.179,128.823,328.001,120.001,328.001z M120.001,456.001h-64v-112l64-0.001V456.001z"/>
	<path d="M72.001,400.001c0,8.822,7.178,16,16,16s16-7.178,16-16s-7.178-16-16-16S72.001,391.179,72.001,400.001z"/>
	<path d="M72.001,368.001c2.11,0,4.17-0.85,5.66-2.34c1.49-1.49,2.34-3.55,2.34-5.66s-0.85-4.17-2.34-5.66   c-1.49-1.49-3.55-2.34-5.66-2.34s-4.17,0.85-5.66,2.34c-1.49,1.49-2.34,3.55-2.34,5.66c0,2.1,0.85,4.17,2.34,5.66   C67.831,367.151,69.891,368.001,72.001,368.001z"/>
	<path d="M104.001,368.001c2.11,0,4.17-0.85,5.66-2.34c1.49-1.49,2.34-3.55,2.34-5.66s-0.85-4.17-2.34-5.66   c-1.49-1.49-3.55-2.34-5.66-2.34s-4.17,0.85-5.66,2.34c-1.49,1.49-2.34,3.55-2.34,5.66s0.85,4.17,2.34,5.66   C99.831,367.151,101.891,368.001,104.001,368.001z"/>
	<path d="M104.001,432.001c-2.11,0-4.17,0.85-5.66,2.34c-1.49,1.49-2.34,3.55-2.34,5.66s0.85,4.17,2.34,5.66   c1.49,1.49,3.55,2.34,5.66,2.34c2.1,0,4.17-0.85,5.66-2.34c1.49-1.49,2.34-3.56,2.34-5.66c0-2.11-0.85-4.17-2.34-5.66   C108.171,432.851,106.11,432.001,104.001,432.001z"/>
	<path d="M72.001,448.001c2.11,0,4.17-0.85,5.66-2.34c1.49-1.49,2.34-3.55,2.34-5.66s-0.85-4.17-2.34-5.66   c-1.49-1.49-3.55-2.34-5.66-2.34s-4.17,0.85-5.66,2.34c-1.49,1.49-2.34,3.55-2.34,5.66s0.85,4.17,2.34,5.66   C67.831,447.151,69.9,448.001,72.001,448.001z"/>
	<path d="M232.001,328.001h-64c-8.822,0-16,7.178-16,16v112c0,8.822,7.178,16,16,16h64c8.822,0,16-7.178,16-16v-112   C248.001,335.179,240.823,328.001,232.001,328.001z M232.001,456.001h-64v-112l64-0.001V456.001z"/>
	<path d="M184.001,400.001c0,8.822,7.178,16,16,16s16-7.178,16-16s-7.178-16-16-16S184.001,391.179,184.001,400.001z"/>
	<path d="M184.001,368.001c2.1,0,4.17-0.85,5.66-2.34c1.49-1.49,2.34-3.55,2.34-5.66s-0.85-4.17-2.34-5.66   c-1.49-1.49-3.56-2.34-5.66-2.34c-2.11,0-4.17,0.85-5.66,2.34c-1.49,1.49-2.34,3.55-2.34,5.66s0.85,4.17,2.34,5.66   C179.831,367.151,181.891,368.001,184.001,368.001z"/>
	<path d="M216.001,368.001c2.11,0,4.17-0.85,5.66-2.34c1.49-1.49,2.34-3.55,2.34-5.66s-0.85-4.17-2.34-5.66   c-1.49-1.49-3.55-2.34-5.66-2.34s-4.17,0.85-5.66,2.34c-1.49,1.49-2.34,3.55-2.34,5.66s0.85,4.17,2.34,5.66   C211.831,367.151,213.891,368.001,216.001,368.001z"/>
	<path d="M216.001,432.001c-2.11,0-4.17,0.85-5.66,2.34c-1.49,1.49-2.34,3.55-2.34,5.66s0.85,4.17,2.34,5.66   c1.49,1.49,3.55,2.34,5.66,2.34c2.1,0,4.17-0.85,5.66-2.34c1.49-1.49,2.34-3.56,2.34-5.66c0-2.11-0.85-4.17-2.34-5.66   C220.171,432.851,218.11,432.001,216.001,432.001z"/>
	<path d="M184.001,448.001c2.11,0,4.17-0.85,5.66-2.34c1.49-1.49,2.34-3.55,2.34-5.66s-0.85-4.17-2.34-5.66   c-1.49-1.49-3.55-2.34-5.66-2.34s-4.17,0.85-5.66,2.34c-1.49,1.49-2.34,3.55-2.34,5.66s0.85,4.17,2.34,5.66   C179.831,447.151,181.9,448.001,184.001,448.001z"/>
	<path d="M344.001,328.001h-64c-8.822,0-16,7.178-16,16v112c0,8.822,7.178,16,16,16h64c8.822,0,16-7.178,16-16v-112   C360.001,335.179,352.823,328.001,344.001,328.001z M344.001,456.001h-64v-112l64-0.001V456.001z"/>
	<path d="M296.001,400.001c0,8.822,7.178,16,16,16s16-7.178,16-16s-7.178-16-16-16S296.001,391.179,296.001,400.001z"/>
	<path d="M296.001,368.001c2.11,0,4.17-0.85,5.66-2.34c1.49-1.49,2.34-3.56,2.34-5.66c0-2.11-0.85-4.17-2.34-5.66   c-1.49-1.49-3.55-2.34-5.66-2.34s-4.17,0.85-5.66,2.34c-1.49,1.49-2.34,3.55-2.34,5.66s0.85,4.17,2.34,5.66   C291.831,367.151,293.891,368.001,296.001,368.001z"/>
	<path d="M328.001,368.001c2.11,0,4.17-0.85,5.66-2.34c1.49-1.49,2.34-3.55,2.34-5.66s-0.85-4.17-2.34-5.66   c-1.49-1.49-3.55-2.34-5.66-2.34s-4.17,0.85-5.66,2.34c-1.49,1.49-2.34,3.55-2.34,5.66s0.85,4.17,2.34,5.66   C323.831,367.151,325.891,368.001,328.001,368.001z"/>
	<path d="M328.001,432.001c-2.11,0-4.17,0.85-5.66,2.34c-1.49,1.49-2.34,3.55-2.34,5.66s0.85,4.17,2.34,5.66   c1.49,1.49,3.55,2.34,5.66,2.34c2.1,0,4.17-0.85,5.66-2.34c1.49-1.49,2.34-3.55,2.34-5.66s-0.85-4.17-2.34-5.66   C332.171,432.851,330.101,432.001,328.001,432.001z"/>
	<path d="M296.001,448.001c2.1,0,4.17-0.85,5.66-2.34c1.49-1.49,2.34-3.55,2.34-5.66s-0.85-4.17-2.34-5.66   c-1.49-1.49-3.55-2.34-5.66-2.34s-4.17,0.85-5.66,2.34c-1.49,1.49-2.34,3.55-2.34,5.66c0,2.1,0.85,4.17,2.34,5.66   C291.831,447.151,293.891,448.001,296.001,448.001z"/>
	<path d="M456.001,328.001h-64c-8.822,0-16,7.178-16,16v112c0,8.822,7.178,16,16,16h64c8.822,0,16-7.178,16-16v-112   C472.001,335.179,464.823,328.001,456.001,328.001z M456.001,456.001h-64v-112l64-0.001V456.001z"/>
	<path d="M408.001,400.001c0,8.822,7.178,16,16,16s16-7.178,16-16s-7.178-16-16-16S408.001,391.179,408.001,400.001z"/>
	<path d="M408.001,368.001c2.1,0,4.17-0.85,5.66-2.34c1.49-1.49,2.34-3.55,2.34-5.66s-0.85-4.17-2.34-5.66   c-1.49-1.49-3.55-2.34-5.66-2.34s-4.17,0.85-5.66,2.34c-1.49,1.49-2.34,3.55-2.34,5.66s0.85,4.17,2.34,5.66   C403.831,367.151,405.891,368.001,408.001,368.001z"/>
	<path d="M440.001,368.001c2.1,0,4.17-0.85,5.66-2.34c1.49-1.49,2.34-3.56,2.34-5.66s-0.85-4.17-2.34-5.66   c-1.49-1.49-3.56-2.34-5.66-2.34c-2.11,0-4.17,0.85-5.66,2.34c-1.49,1.49-2.34,3.55-2.34,5.66s0.85,4.17,2.34,5.66   C435.831,367.151,437.9,368.001,440.001,368.001z"/>
	<path d="M440.001,432.001c-2.11,0-4.17,0.85-5.66,2.34c-1.49,1.49-2.34,3.55-2.34,5.66s0.85,4.17,2.34,5.66   c1.49,1.49,3.56,2.34,5.66,2.34s4.17-0.85,5.66-2.34c1.49-1.49,2.34-3.56,2.34-5.66s-0.85-4.17-2.34-5.66   C444.171,432.851,442.101,432.001,440.001,432.001z"/>
	<path d="M408.001,448.001c2.1,0,4.17-0.85,5.66-2.34c1.49-1.49,2.34-3.55,2.34-5.66s-0.85-4.17-2.34-5.66   c-1.49-1.49-3.55-2.34-5.66-2.34s-4.17,0.85-5.66,2.34c-1.49,1.49-2.34,3.55-2.34,5.66s0.85,4.17,2.34,5.66   C403.831,447.151,405.891,448.001,408.001,448.001z"/>
	<path d="M336.002,200.001c-4.418,0-8.001,3.582-8.001,8s3.581,8,8,8c4.411,0,8,3.589,8,8v56c0,4.411-3.589,8-8,8h-160   c-4.411,0-8-3.589-8-8v-56c0-4.411,3.589-8,8-8h128.001c4.418,0,8-3.582,8-8s-3.582-8-8-8H176.001c-13.233,0-24,10.767-24,24v56   c0,13.233,10.767,24,24,24h160c13.233,0,24-10.767,24-24v-56C360.001,210.768,349.235,200.001,336.002,200.001z"/>
	<path d="M392.001,248.001c0,22.056,17.944,40,40,40s40-17.944,40-40c0-3.385-0.425-6.752-1.264-10.006   c-1.103-4.278-5.46-6.853-9.743-5.751c-4.279,1.103-6.854,5.465-5.751,9.743c0.503,1.951,0.758,3.975,0.758,6.014   c0,13.233-10.767,24-24,24s-24-10.767-24-24s10.767-24,24-24c2.039,0,4.062,0.255,6.013,0.758c4.279,1.101,8.641-1.472,9.744-5.75   c1.103-4.278-1.472-8.641-5.75-9.744c-3.254-0.838-6.621-1.264-10.006-1.264C409.944,208.001,392.001,225.945,392.001,248.001z"/>
	<path d="M80.001,288.001c22.056,0,40-17.944,40-40c0-3.385-0.425-6.752-1.264-10.006c-1.103-4.278-5.46-6.853-9.743-5.751   c-4.279,1.103-6.854,5.465-5.751,9.743c0.503,1.951,0.758,3.975,0.758,6.014c0,13.233-10.767,24-24,24s-24-10.767-24-24   s10.767-24,24-24c2.039,0,4.062,0.255,6.013,0.758c4.279,1.101,8.641-1.472,9.744-5.75s-1.472-8.641-5.75-9.744   c-3.254-0.838-6.621-1.264-10.006-1.264c-22.056,0-40,17.944-40,40S57.944,288.001,80.001,288.001z"/>
	<path d="M176.001,128.001c0-3.385-0.425-6.752-1.264-10.006c-1.103-4.278-5.462-6.854-9.743-5.751   c-4.279,1.103-6.854,5.465-5.751,9.743c0.503,1.951,0.758,3.975,0.758,6.014c0,13.233-10.767,24-24,24s-24-10.767-24-24   s10.767-24,24-24c2.039,0,4.062,0.255,6.013,0.758c4.279,1.101,8.641-1.472,9.744-5.75c1.103-4.278-1.472-8.641-5.75-9.744   c-3.254-0.838-6.621-1.264-10.006-1.264c-22.056,0-40,17.944-40,40s17.944,40,40,40S176.001,150.057,176.001,128.001z"/>
	<path d="M376.001,168.001c22.056,0,40-17.944,40-40c0-3.385-0.425-6.752-1.264-10.006c-1.103-4.278-5.461-6.854-9.743-5.751   c-4.279,1.103-6.854,5.465-5.751,9.743c0.503,1.951,0.758,3.975,0.758,6.014c0,13.233-10.767,24-24,24s-24-10.767-24-24   s10.767-24,24-24c2.039,0,4.062,0.255,6.013,0.758c4.278,1.101,8.641-1.472,9.744-5.75c1.103-4.278-1.472-8.641-5.75-9.744   c-3.254-0.838-6.621-1.264-10.006-1.264c-22.056,0-40,17.944-40,40S353.944,168.001,376.001,168.001z"/>
	<path d="M256.001,120.001c22.056,0,40-17.944,40-40c0-3.385-0.425-6.752-1.264-10.006c-1.103-4.278-5.461-6.854-9.743-5.751   c-4.279,1.103-6.854,5.465-5.751,9.743c0.503,1.951,0.758,3.975,0.758,6.014c0,13.233-10.767,24-24,24s-24-10.767-24-24   s10.767-24,24-24c2.039,0,4.062,0.255,6.013,0.758c4.279,1.101,8.641-1.472,9.744-5.75c1.103-4.278-1.472-8.641-5.75-9.744   c-3.254-0.838-6.621-1.264-10.006-1.264c-22.056,0-40,17.944-40,40S233.944,120.001,256.001,120.001z"/>
</g>
</svg>